G04 EasyGerb 5 for AutoCAD*
G04 Registered to lior.segev@weizmann.ac.il*
G04 RS274-X Output *
%FSLAX34Y34*%
%MOMM*%
%ADD12C,0.127000*%
%ADD13C,0.007000*%
G54D12*X116023868Y69502883D02*X115266757Y82655804D01*X189766757Y84655804*X189766757Y87155804*X189641757Y87155804*X189441757Y87655804*X189441757Y87768506*G75*G03X189441757Y88155804I-50001J193649D01*G74*G01*X189441757Y88268506*G75*G03X189441757Y88655804I-50001J193649D01*G74*G01*X189441757Y88768506*G75*G03X189441757Y89155804I-50001J193649D01*G74*G01*X189441757Y89268506*G75*G03X189441757Y89655804I-50001J193649D01*G74*G01*X189441757Y89768506*G75*G03X189441757Y90155804I-50001J193649D01*G74*G01*X189441757Y90268506*G75*G03X189441757Y90655804I-50001J193649D01*G74*G01*X189441757Y90768506*G75*G03X189441757Y91155804I-50001J193649D01*G74*G01*X189441757Y91268506*G75*G03X189441757Y91655804I-50001J193649D01*G74*G01*X189441757Y91768506*G75*G03X189441757Y92155804I-50001J193649D01*G74*G01*X189441757Y92268506*G75*G03X189441757Y92655804I-50001J193649D01*G74*G01*X189441757Y92768506*G75*G03X189441757Y93155804I-50001J193649D01*G74*G01*X189441757Y93268506*G75*G03X189441757Y93655804I-50001J193649D01*G74*G01*X189441757Y93768506*G75*G03X189441757Y94155804I-50001J193649D01*G74*G01*X189441757Y94268506*G75*G03X189441757Y94655804I-50001J193649D01*G74*G01*X189441757Y94768506*G75*G03X189441757Y95155804I-50001J193649D01*G74*G01*X189441757Y95268506*G75*G03X189441757Y95655804I-50001J193649D01*G74*G01*X189441757Y95768506*G75*G03X189441757Y96155804I-50001J193649D01*G74*G01*X189441757Y96268506*G75*G03X189441757Y96655804I-50001J193649D01*G74*G01*X189441757Y96768506*G75*G03X189441757Y97155804I-50001J193649D01*G74*G01*X189441757Y97268506*G75*G03X189441757Y97655804I-50001J193649D01*G74*G01*X189441757Y97768506*G75*G03X189441757Y98155804I-50001J193649D01*G74*G01*X189441757Y98268506*G75*G03X189441757Y98655804I-50001J193649D01*G74*G01*X189441757Y98768506*G75*G03X189441757Y99155804I-50001J193649D01*G74*G01*X189441757Y99268506*G75*G03X189441757Y99655804I-50001J193649D01*G74*G01*X189441757Y99768506*G75*G03X189441757Y100155804I-50001J193649D01*G74*G01*X189441757Y100268506*G75*G03X189441757Y100655804I-50001J193649D01*G74*G01*X189441757Y100768506*G75*G03X189441757Y101155804I-50001J193649D01*G74*G01*X189441757Y101268506*G75*G03X189441757Y101655804I-50001J193649D01*G74*G01*X189441757Y101768506*G75*G03X189441757Y102155804I-50001J193649D01*G74*G01*X189441757Y102268506*G75*G03X189441757Y102655804I-50001J193649D01*G74*G01*X189441757Y102768506*G75*G03X189441757Y103155804I-50001J193649D01*G74*G01*X189441757Y103268506*G75*G03X189441757Y103655804I-50001J193649D01*G74*G01*X189441757Y103768506*G75*G03X189441757Y104155804I-50001J193649D01*G74*G01*X189441757Y104268506*G75*G03X189441757Y104655804I-50001J193649D01*G74*G01*X189441757Y104768506*G75*G03X189441757Y105155804I-50001J193649D01*G74*G01*X189441757Y105268506*G75*G03X189441757Y105655804I-50001J193649D01*G74*G01*X189441757Y105768506*G75*G03X189441757Y106155804I-50001J193649D01*G74*G01*X189441757Y106268506*G75*G03X189441757Y106655804I-50001J193649D01*G74*G01*X189441757Y106768506*G75*G03X189441757Y107155804I-50001J193649D01*G74*G01*X189441757Y107268506*G75*G03X189441757Y107655804I-50001J193649D01*G74*G01*X189441757Y107768506*G75*G03X189441757Y108155804I-50001J193649D01*G74*G01*X189441757Y108268506*G75*G03X189441757Y108655804I-50001J193649D01*G74*G01*X189441757Y108768506*G75*G03X189441757Y109155804I-50001J193649D01*G74*G01*X189441757Y109268506*G75*G03X189441757Y109655804I-50001J193649D01*G74*G01*X189441757Y109768506*G75*G03X189441757Y110155804I-50001J193649D01*G74*G01*X189441757Y110268506*G75*G03X189441757Y110655804I-50001J193649D01*G74*G01*X189441757Y110768506*G75*G03X189441757Y111155804I-50001J193649D01*G74*G01*X189441757Y111268506*G75*G03X189441757Y111655804I-50001J193649D01*G74*G01*X189441757Y111768506*G75*G03X189441757Y112155804I-50001J193649D01*G74*G01*X189441757Y112268506*G75*G03X189441757Y112655804I-50001J193649D01*G74*G01*X189441757Y112768506*G75*G03X189441757Y113155804I-50001J193649D01*G74*G01*X189441757Y113268506*G75*G03X189441757Y113655804I-50001J193649D01*G74*G01*X189441757Y113768506*G75*G03X189441757Y114155804I-50001J193649D01*G74*G01*X189441757Y114268506*G75*G03X189441757Y114655804I-50001J193649D01*G74*G01*X189441757Y114768506*G75*G03X189441757Y115155804I-50001J193649D01*G74*G01*X189441757Y115268506*G75*G03X189441757Y115655804I-50001J193649D01*G74*G01*X189441757Y115768506*G75*G03X189441757Y116155804I-50001J193649D01*G74*G01*X189441757Y116268506*G75*G03X189441757Y116655804I-50001J193649D01*G74*G01*X189441757Y116768506*G75*G03X189441757Y117155804I-50001J193649D01*G74*G01*X189441757Y117268506*G75*G03X189441757Y117655804I-50001J193649D01*G74*G01*X189441757Y117768506*G75*G03X189441757Y118155804I-50001J193649D01*G74*G01*X189441757Y118268506*G75*G03X189441757Y118655804I-50001J193649D01*G74*G01*X189441757Y118768506*G75*G03X189441757Y119155804I-50001J193649D01*G74*G01*X189441757Y119268506*G75*G03X189441757Y119655804I-50001J193649D01*G74*G01*X189441757Y119768506*G75*G03X189441757Y120155804I-50001J193649D01*G74*G01*X189441757Y120268506*G75*G03X189441757Y120655804I-50001J193649D01*G74*G01*X189441757Y120768506*G75*G03X189441757Y121155804I-50001J193649D01*G74*G01*X189441757Y121268506*G75*G03X189441757Y121655804I-50001J193649D01*G74*G01*X189441757Y121768506*G75*G03X189441757Y122155804I-50001J193649D01*G74*G01*X189441757Y122268506*G75*G03X189441757Y122655804I-50001J193649D01*G74*G01*X189441757Y122768506*G75*G03X189441757Y123155804I-50001J193649D01*G74*G01*X189441757Y123268506*G75*G03X189441757Y123655804I-50001J193649D01*G74*G01*X189441757Y123768506*G75*G03X189441757Y124155804I-50001J193649D01*G74*G01*X189441757Y124268506*G75*G03X189441757Y124655804I-50001J193649D01*G74*G01*X189441757Y124768506*G75*G03X189441757Y125155804I-50001J193649D01*G74*G01*X189441757Y125268506*G75*G03X189441757Y125655804I-50001J193649D01*G74*G01*X189441757Y125768506*G75*G03X189441757Y126155804I-50001J193649D01*G74*G01*X189441757Y126268506*G75*G03X189441757Y126655804I-50001J193649D01*G74*G01*X189441757Y126768506*G75*G03X189441757Y127155804I-50001J193649D01*G74*G01*X189441757Y127268506*G75*G03X189441757Y127655804I-50001J193649D01*G74*G01*X189441757Y127768506*G75*G03X189441757Y128155804I-50001J193649D01*G74*G01*X189441757Y128268506*G75*G03X189441757Y128655804I-50001J193649D01*G74*G01*X189441757Y128768506*G75*G03X189441757Y129155804I-50001J193649D01*G74*G01*X189441757Y129268506*G75*G03X189441757Y129655804I-50001J193649D01*G74*G01*X189441757Y129768506*G75*G03X189441757Y130155804I-50001J193649D01*G74*G01*X189441757Y130268506*G75*G03X189441757Y130655804I-50001J193649D01*G74*G01*X189441757Y130768506*G75*G03X189441757Y131155804I-50001J193649D01*G74*G01*X189441757Y131268506*G75*G03X189441757Y131655804I-50001J193649D01*G74*G01*X189441757Y131768506*G75*G03X189441757Y132155804I-50001J193649D01*G74*G01*X189441757Y132268506*G75*G03X189441757Y132655804I-50001J193649D01*G74*G01*X189441757Y132768506*G75*G03X189441757Y133155804I-50001J193649D01*G74*G01*X189441757Y133268506*G75*G03X189441757Y133655804I-50001J193649D01*G74*G01*X189441757Y133768506*G75*G03X189441757Y134155804I-50001J193649D01*G74*G01*X189441757Y134268506*G75*G03X189441757Y134655804I-50001J193649D01*G74*G01*X189441757Y134768506*G75*G03X189441757Y135155804I-50001J193649D01*G74*G01*X189441757Y135268506*G75*G03X189441757Y135655804I-50001J193649D01*G74*G01*X189441757Y135768506*G75*G03X189441757Y136155804I-50001J193649D01*G74*G01*X189441757Y136268506*G75*G03X189441757Y136655804I-50001J193649D01*G74*G01*X189441757Y136768506*G75*G03X189441757Y137155804I-50001J193649D01*G74*G01*X189441757Y137268506*G75*G03X189441757Y137655804I-50001J193649D01*G74*G01*X189441757Y137768506*G75*G03X189441757Y138155804I-50001J193649D01*G74*G01*X189441757Y138268506*G75*G03X189441757Y138655804I-50001J193649D01*G74*G01*X189441757Y138768506*G75*G03X189441757Y139155804I-50001J193649D01*G74*G01*X189441757Y139268506*G75*G03X189441757Y139655804I-50001J193649D01*G74*G01*X189441757Y139768506*G75*G03X189441757Y140155804I-50001J193649D01*G74*G01*X189441757Y140268506*G75*G03X189441757Y140655804I-50001J193649D01*G74*G01*X189441757Y140768506*G75*G03X189441757Y141155804I-50001J193649D01*G74*G01*X189441757Y141268506*G75*G03X189441757Y141655804I-50001J193649D01*G74*G01*X189441757Y141768506*G75*G03X189441757Y142155804I-50001J193649D01*G74*G01*X189441757Y142268506*G75*G03X189441757Y142655804I-50001J193649D01*G74*G01*X189441757Y142768506*G75*G03X189441757Y143155804I-50001J193649D01*G74*G01*X189441757Y143268506*G75*G03X189441757Y143655804I-50001J193649D01*G74*G01*X189441757Y143768506*G75*G03X189441757Y144155804I-50001J193649D01*G74*G01*X189441757Y144268506*G75*G03X189441757Y144655804I-50001J193649D01*G74*G01*X189441757Y144768506*G75*G03X189441757Y145155804I-50001J193649D01*G74*G01*X189441757Y145268506*G75*G03X189441757Y145655804I-50001J193649D01*G74*G01*X189441757Y145768506*G75*G03X189441757Y146155804I-50001J193649D01*G74*G01*X189441757Y146268506*G75*G03X189441757Y146655804I-50001J193649D01*G74*G01*X189441757Y146768506*G75*G03X189441757Y147155804I-50001J193649D01*G74*G01*X189441757Y147268506*G75*G03X189441757Y147655804I-50001J193649D01*G74*G01*X189441757Y147768506*G75*G03X189441757Y148155804I-50001J193649D01*G74*G01*X189441757Y148268506*G75*G03X189441757Y148655804I-50001J193649D01*G74*G01*X189441757Y148768506*G75*G03X189441757Y149155804I-50001J193649D01*G74*G01*X189441757Y149268506*G75*G03X189441757Y149655804I-50001J193649D01*G74*G01*X189441757Y149768506*G75*G03X189441757Y150155804I-50001J193649D01*G74*G01*X189441757Y150268506*G75*G03X189441757Y150655804I-50001J193649D01*G74*G01*X189441757Y150768506*G75*G03X189441757Y151155804I-50001J193649D01*G74*G01*X189441757Y151268506*G75*G03X189441757Y151655804I-50001J193649D01*G74*G01*X189441757Y151768506*G75*G03X189441757Y152155804I-50001J193649D01*G74*G01*X189441757Y152268506*G75*G03X189441757Y152655804I-50001J193649D01*G74*G01*X189441757Y152768506*G75*G03X189441757Y153155804I-50001J193649D01*G74*G01*X189441757Y153268506*G75*G03X189441757Y153655804I-50001J193649D01*G74*G01*X189441757Y153768506*G75*G03X189441757Y154155804I-50001J193649D01*G74*G01*X189441757Y154268506*G75*G03X189441757Y154655804I-50001J193649D01*G74*G01*X189441757Y154768506*G75*G03X189441757Y155155804I-50001J193649D01*G74*G01*X189441757Y155268506*G75*G03X189441757Y155655804I-50001J193649D01*G74*G01*X189441757Y155768506*G75*G03X189441757Y156155804I-50001J193649D01*G74*G01*X189441757Y156268506*G75*G03X189441757Y156655804I-50001J193649D01*G74*G01*X189441757Y156768506*G75*G03X189441757Y157155804I-50001J193649D01*G74*G01*X189441757Y157268506*G75*G03X189441757Y157655804I-50001J193649D01*G74*G01*X189441757Y157768506*G75*G03X189441757Y158155804I-50001J193649D01*G74*G01*X189441757Y158268506*G75*G03X189441757Y158655804I-50001J193649D01*G74*G01*X189441757Y158768506*G75*G03X189441757Y159155804I-50001J193649D01*G74*G01*X189441757Y159268506*G75*G03X189441757Y159655804I-50001J193649D01*G74*G01*X189441757Y159768506*G75*G03X189441757Y160155804I-50001J193649D01*G74*G01*X189441757Y160268506*G75*G03X189441757Y160655804I-50001J193649D01*G74*G01*X189441757Y160768506*G75*G03X189441757Y161155804I-50001J193649D01*G74*G01*X189441757Y161268506*G75*G03X189441757Y161655804I-50001J193649D01*G74*G01*X189441757Y161768506*G75*G03X189441757Y162155804I-50001J193649D01*G74*G01*X189441757Y162268506*G75*G03X189441757Y162655804I-50001J193649D01*G74*G01*X189441757Y162768506*G75*G03X189441757Y163155804I-50001J193649D01*G74*G01*X189441757Y163268506*G75*G03X189441757Y163655804I-50001J193649D01*G74*G01*X189441757Y163768506*G75*G03X189441757Y164155804I-50001J193649D01*G74*G01*X189441757Y164268506*G75*G03X189441757Y164655804I-50001J193649D01*G74*G01*X189441757Y164768506*G75*G03X189441757Y165155804I-50001J193649D01*G74*G01*X189441757Y165268506*G75*G03X189441757Y165655804I-50001J193649D01*G74*G01*X189441757Y165768506*G75*G03X189441757Y166155804I-50001J193649D01*G74*G01*X189441757Y166268506*G75*G03X189441757Y166655804I-50001J193649D01*G74*G01*X189441757Y166768506*G75*G03X189441757Y167155804I-50001J193649D01*G74*G01*X189441757Y167268506*G75*G03X189441757Y167655804I-50001J193649D01*G74*G01*X189441757Y167768506*G75*G03X189441757Y168155804I-50001J193649D01*G74*G01*X189441757Y168268506*G75*G03X189441757Y168655804I-50001J193649D01*G74*G01*X189441757Y168768506*G75*G03X189441757Y169155804I-50001J193649D01*G74*G01*X189441757Y169268506*G75*G03X189441757Y169655804I-50001J193649D01*G74*G01*X189441757Y169768506*G75*G03X189441757Y170155804I-50001J193649D01*G74*G01*X189441757Y170268506*G75*G03X189441757Y170655804I-50001J193649D01*G74*G01*X189441757Y170768506*G75*G03X189441757Y171155804I-50001J193649D01*G74*G01*X189441757Y171268506*G75*G03X189441757Y171655804I-50001J193649D01*G74*G01*X189441757Y171768506*G75*G03X189441757Y172155804I-50001J193649D01*G74*G01*X189441757Y172268506*G75*G03X189441757Y172655804I-50001J193649D01*G74*G01*X189441757Y172768506*G75*G03X189441757Y173155804I-50001J193649D01*G74*G01*X189441757Y173268506*G75*G03X189441757Y173655804I-50001J193649D01*G74*G01*X189441757Y173768506*G75*G03X189441757Y174155804I-50001J193649D01*G74*G01*X189441757Y174268506*G75*G03X189441757Y174655804I-50001J193649D01*G74*G01*X189441757Y174768506*G75*G03X189441757Y175155804I-50001J193649D01*G74*G01*X189441757Y175268506*G75*G03X189441757Y175655804I-50001J193649D01*G74*G01*X189441757Y175768506*G75*G03X189441757Y176155804I-50001J193649D01*G74*G01*X189441757Y176268506*G75*G03X189441757Y176655804I-50001J193649D01*G74*G01*X189441757Y176768506*G75*G03X189441757Y177155804I-50001J193649D01*G74*G01*X189441757Y177268506*G75*G03X189441757Y177655804I-50001J193649D01*G74*G01*X189441757Y177768506*G75*G03X189441757Y178155804I-50001J193649D01*G74*G01*X189441757Y178268506*G75*G03X189441757Y178655804I-50001J193649D01*G74*G01*X189441757Y178768506*G75*G03X189441757Y179155804I-50001J193649D01*G74*G01*X189441757Y179268506*G75*G03X189441757Y179655804I-50001J193649D01*G74*G01*X189441757Y179768506*G75*G03X189441757Y180155804I-50001J193649D01*G74*G01*X189441757Y180268506*G75*G03X189441757Y180655804I-50001J193649D01*G74*G01*X189441757Y180768506*G75*G03X189441757Y181155804I-50001J193649D01*G74*G01*X189441757Y181268506*G75*G03X189441757Y181655804I-50001J193649D01*G74*G01*X189441757Y181768506*G75*G03X189441757Y182155804I-50001J193649D01*G74*G01*X189441757Y182268506*G75*G03X189441757Y182655804I-50001J193649D01*G74*G01*X189441757Y182768506*G75*G03X189441757Y183155804I-50001J193649D01*G74*G01*X189441757Y183268506*G75*G03X189441757Y183655804I-50001J193649D01*G74*G01*X189441757Y183768506*G75*G03X189441757Y184155804I-50001J193649D01*G74*G01*X189441757Y184268506*G75*G03X189441757Y184655804I-50001J193649D01*G74*G01*X189441757Y184768506*G75*G03X189441757Y185155804I-50001J193649D01*G74*G01*X189441757Y185268506*G75*G03X189441757Y185655804I-50001J193649D01*G74*G01*X189441757Y185768506*G75*G03X189441757Y186155804I-50001J193649D01*G74*G01*X189441757Y186268506*G75*G03X189441757Y186655804I-50001J193649D01*G74*G01*X189441757Y186768506*G75*G03X189441757Y187155804I-50001J193649D01*G74*G01*X189441757Y187268506*G75*G03X189441757Y187655804I-50001J193649D01*G74*G01*X189441757Y187768506*G75*G03X189441757Y188155804I-50001J193649D01*G74*G01*X189441757Y188268506*G75*G03X189441757Y188655804I-50001J193649D01*G74*G01*X189441757Y188768506*G75*G03X189441757Y189155804I-50001J193649D01*G74*G01*X189441757Y189268506*G75*G03X189441757Y189655804I-50001J193649D01*G74*G01*X189441757Y189768506*G75*G03X189441757Y190155804I-50001J193649D01*G74*G01*X189441757Y190268506*G75*G03X189441757Y190655804I-50001J193649D01*G74*G01*X189441757Y190768506*G75*G03X189441757Y191155804I-50001J193649D01*G74*G01*X189441757Y191268506*G75*G03X189441757Y191655804I-50001J193649D01*G74*G01*X189441757Y191768506*G75*G03X189441757Y192155804I-50001J193649D01*G74*G01*X189441757Y192268506*G75*G03X189441757Y192655804I-50001J193649D01*G74*G01*X189441757Y192768506*G75*G03X189441757Y193155804I-50001J193649D01*G74*G01*X189441757Y193268506*G75*G03X189441757Y193655804I-50001J193649D01*G74*G01*X189441757Y193768506*G75*G03X189441757Y194155804I-50001J193649D01*G74*G01*X189441757Y194268506*G75*G03X189441757Y194655804I-50001J193649D01*G74*G01*X189441757Y194768506*G75*G03X189441757Y195155804I-50001J193649D01*G74*G01*X189441757Y195268506*G75*G03X189441757Y195655804I-50001J193649D01*G74*G01*X189441757Y195768506*G75*G03X189441757Y196155804I-50001J193649D01*G74*G01*X189441757Y196268506*G75*G03X189441757Y196655804I-50001J193649D01*G74*G01*X189441757Y196768506*G75*G03X189441757Y197155804I-50001J193649D01*G74*G01*X189441757Y197268506*G75*G03X189441757Y197655804I-50001J193649D01*G74*G01*X189441757Y197768506*G75*G03X189441757Y198155804I-50001J193649D01*G74*G01*X189441757Y198268506*G75*G03X189441757Y198655804I-50001J193649D01*G74*G01*X189441757Y198768506*G75*G03X189441757Y199155804I-50001J193649D01*G74*G01*X189441757Y199268506*G75*G03X189441757Y199655804I-50001J193649D01*G74*G01*X189441757Y199768506*G75*G03X189441757Y200155804I-50001J193649D01*G74*G01*X189441757Y200268506*G75*G03X189441757Y200655804I-50001J193649D01*G74*G01*X189441757Y200768506*G75*G03X189441757Y201155804I-50001J193649D01*G74*G01*X189441757Y201268506*G75*G03X189441757Y201655804I-50001J193649D01*G74*G01*X189441757Y201768506*G75*G03X189441757Y202155804I-50001J193649D01*G74*G01*X189441757Y202268506*G75*G03X189441757Y202655804I-50001J193649D01*G74*G01*X189441757Y202768506*G75*G03X189441757Y203155804I-50001J193649D01*G74*G01*X189441757Y203268506*G75*G03X189441757Y203655804I-50001J193649D01*G74*G01*X189441757Y203768506*G75*G03X189441757Y204155804I-50001J193649D01*G74*G01*X189441757Y204268506*G75*G03X189441757Y204655804I-50001J193649D01*G74*G01*X189441757Y204768506*G75*G03X189441757Y205155804I-50001J193649D01*G74*G01*X189441757Y205268506*G75*G03X189441757Y205655804I-50001J193649D01*G74*G01*X189441757Y205768506*G75*G03X189441757Y206155804I-50001J193649D01*G74*G01*X189441757Y206268506*G75*G03X189441757Y206655804I-50001J193649D01*G74*G01*X189441757Y206768506*G75*G03X189441757Y207155804I-50001J193649D01*G74*G01*X189441757Y207268506*G75*G03X189441757Y207655804I-50001J193649D01*G74*G01*X189441757Y207768506*G75*G03X189441757Y208155804I-50001J193649D01*G74*G01*X189441757Y208268506*G75*G03X189441757Y208655804I-50001J193649D01*G74*G01*X189441757Y208768506*G75*G03X189441757Y209155804I-50001J193649D01*G74*G01*X189441757Y209268506*G75*G03X189441757Y209655804I-50001J193649D01*G74*G01*X189441757Y209768506*G75*G03X189441757Y210155804I-50001J193649D01*G74*G01*X189441757Y210268506*G75*G03X189441757Y210655804I-50001J193649D01*G74*G01*X189441757Y210768506*G75*G03X189441757Y211155804I-50001J193649D01*G74*G01*X189441757Y211268506*G75*G03X189441757Y211655804I-50001J193649D01*G74*G01*X189441757Y211768506*G75*G03X189441757Y212155804I-50001J193649D01*G74*G01*X189441757Y212268506*G75*G03X189441757Y212655804I-50001J193649D01*G74*G01*X189441757Y212768506*G75*G03X189441757Y213155804I-50001J193649D01*G74*G01*X189441757Y213268506*G75*G03X189441757Y213655804I-50001J193649D01*G74*G01*X189441757Y213768506*G75*G03X189441757Y214155804I-50001J193649D01*G74*G01*X189441757Y214268506*G75*G03X189441757Y214655804I-50001J193649D01*G74*G01*X189441757Y214768506*G75*G03X189441757Y215155804I-50001J193649D01*G74*G01*X189441757Y215268506*G75*G03X189441757Y215655804I-50001J193649D01*G74*G01*X189441757Y215768506*G75*G03X189441757Y216155804I-50001J193649D01*G74*G01*X189441757Y216268506*G75*G03X189441757Y216655804I-50001J193649D01*G74*G01*X189441757Y216768506*G75*G03X189441757Y217155804I-50001J193649D01*G74*G01*X189441757Y217268506*G75*G03X189441757Y217655804I-50001J193649D01*G74*G01*X189441757Y217768506*G75*G03X189441757Y218155804I-50001J193649D01*G74*G01*X189441757Y218268506*G75*G03X189441757Y218655804I-50001J193649D01*G74*G01*X189441757Y218768506*G75*G03X189441757Y219155804I-50001J193649D01*G74*G01*X189441757Y219268506*G75*G03X189441757Y219655804I-50001J193649D01*G74*G01*X189441757Y219768506*G75*G03X189441757Y220155804I-50001J193649D01*G74*G01*X189441757Y220268506*G75*G03X189441757Y220655804I-50001J193649D01*G74*G01*X189441757Y220768506*G75*G03X189441757Y221155804I-50001J193649D01*G74*G01*X189441757Y221268506*G75*G03X189441757Y221655804I-50001J193649D01*G74*G01*X189441757Y221768506*G75*G03X189441757Y222155804I-50001J193649D01*G74*G01*X189441757Y222268506*G75*G03X189441757Y222655804I-50001J193649D01*G74*G01*X189441757Y222768506*G75*G03X189441757Y223155804I-50001J193649D01*G74*G01*X189441757Y223268506*G75*G03X189441757Y223655804I-50001J193649D01*G74*G01*X189441757Y223768506*G75*G03X189441757Y224155804I-50001J193649D01*G74*G01*X189441757Y224268506*G75*G03X189441757Y224655804I-50001J193649D01*G74*G01*X189441757Y224768506*G75*G03X189441757Y225155804I-50001J193649D01*G74*G01*X189441757Y225268506*G75*G03X189441757Y225655804I-50001J193649D01*G74*G01*X189441757Y225768506*G75*G03X189441757Y226155804I-50001J193649D01*G74*G01*X189441757Y226268506*G75*G03X189441757Y226655804I-50001J193649D01*G74*G01*X189441757Y226768506*G75*G03X189441757Y227155804I-50001J193649D01*G74*G01*X189441757Y227268506*G75*G03X189441757Y227655804I-50001J193649D01*G74*G01*X189441757Y227768506*G75*G03X189441757Y228155804I-50001J193649D01*G74*G01*X189441757Y228268506*G75*G03X189441757Y228655804I-50001J193649D01*G74*G01*X189441757Y228768506*G75*G03X189441757Y229155804I-50001J193649D01*G74*G01*X189441757Y229268506*G75*G03X189441757Y229655804I-50001J193649D01*G74*G01*X189441757Y229768506*G75*G03X189441757Y230155804I-50001J193649D01*G74*G01*X189441757Y230268506*G75*G03X189441757Y230655804I-50001J193649D01*G74*G01*X189441757Y230768506*G75*G03X189441757Y231155804I-50001J193649D01*G74*G01*X189441757Y231268506*G75*G03X189441757Y231655804I-50001J193649D01*G74*G01*X189441757Y231768506*G75*G03X189441757Y232155804I-50001J193649D01*G74*G01*X189441757Y232268506*G75*G03X189441757Y232655804I-50001J193649D01*G74*G01*X189441757Y232768506*G75*G03X189441757Y233155804I-50001J193649D01*G74*G01*X189441757Y233268506*G75*G03X189441757Y233655804I-50001J193649D01*G74*G01*X189441757Y233768506*G75*G03X189441757Y234155804I-50001J193649D01*G74*G01*X189441757Y234268506*G75*G03X189441757Y234655804I-50001J193649D01*G74*G01*X189441757Y234768506*G75*G03X189441757Y235155804I-50001J193649D01*G74*G01*X189441757Y235268506*G75*G03X189441757Y235655804I-50001J193649D01*G74*G01*X189441757Y235768506*G75*G03X189441757Y236155804I-50001J193649D01*G74*G01*X189441757Y236268506*G75*G03X189441757Y236655804I-50001J193649D01*G74*G01*X189441757Y236768506*G75*G03X189441757Y237155804I-50001J193649D01*G74*G01*X189441757Y237268506*G75*G03X189441757Y237655804I-50001J193649D01*G74*G01*X189441757Y238155804*X189641757Y238655804*X189766757Y238655804*X189766757Y244693618*X189766757Y245193618*X125555742Y245193618*X120134182Y245193618*X119134182Y245193618*X119134182Y246193618*X119134182Y251348410*X119134182Y254199872*X129766757Y254199872*X149766757Y254199872*X149766759Y254699872*X149767166Y393039976*X115766757Y393038180*G75*G02X115266757Y393557289I34164J533262D01*G74*G01*X115771937Y393918639*X116201685Y394715137*X116343966Y395036453*X116395292Y395200879*X116532057Y395639022*X116591247Y395863540*X116745239Y396663540*X116806027Y397023540*X116892628Y398023530*X116887679Y399343530*X116793309Y400343544*X116748085Y400744309*X116326757Y402349747*X116016727Y402937233*X116016962Y409781747*G75*G03X122250277Y416676847I-1250000J7395100D01*G74*G01*G75*G03X113516962Y409781747I-7483318J499945D01*G74*G01*X113516962Y403866747*X113516725Y402937233*X113206725Y402349804*X112785397Y400744366*X112740173Y400343601*X112645804Y399343587*X112640854Y398023587*X112727455Y397023597*X112788243Y396663597*X112942235Y395863597*X113001425Y395639079*X113138190Y395200936*X113189516Y395036510*X113331797Y394715194*X113761546Y393912076*X114266725Y393557346*G75*G02X113813344Y393039976I-538849J14861D01*G74*G01*X79766757Y393039976*X79766757Y254699872*X79766757Y254199872*X99766757Y254199872*X110399332Y254199872*X110399332Y251348410*X110399332Y246193618*X110399332Y245193618*X109399332Y245193618*X103977772Y245193618*X39766757Y245193618*X39766757Y244693618*X39766757Y240655804*X39766757Y238655804*X39891757Y238655804*X40091757Y238155804*X40091757Y237655804*G75*G03X40091757Y237268506I50002J-193649D01*G74*G01*X40091757Y237155804*G75*G03X40091757Y236768506I50002J-193649D01*G74*G01*X40091757Y236655804*G75*G03X40091757Y236268506I50002J-193649D01*G74*G01*X40091757Y236155804*G75*G03X40091757Y235768506I50002J-193649D01*G74*G01*X40091757Y235655804*G75*G03X40091757Y235268506I50002J-193649D01*G74*G01*X40091757Y235155804*G75*G03X40091757Y234768506I50002J-193649D01*G74*G01*X40091757Y234655804*G75*G03X40091757Y234268506I50002J-193649D01*G74*G01*X40091757Y234155804*G75*G03X40091757Y233768506I50002J-193649D01*G74*G01*X40091757Y233655804*G75*G03X40091757Y233268506I50002J-193649D01*G74*G01*X40091757Y233155804*G75*G03X40091757Y232768506I50002J-193649D01*G74*G01*X40091757Y232655804*G75*G03X40091757Y232268506I50002J-193649D01*G74*G01*X40091757Y232155804*G75*G03X40091757Y231768506I50002J-193649D01*G74*G01*X40091757Y231655804*G75*G03X40091757Y231268506I50002J-193649D01*G74*G01*X40091757Y231155804*G75*G03X40091757Y230768506I50002J-193649D01*G74*G01*X40091757Y230655804*G75*G03X40091757Y230268506I50002J-193649D01*G74*G01*X40091757Y230155804*G75*G03X40091757Y229768506I50002J-193649D01*G74*G01*X40091757Y229655804*G75*G03X40091757Y229268506I50002J-193649D01*G74*G01*X40091757Y229155804*G75*G03X40091757Y228768506I50002J-193649D01*G74*G01*X40091757Y228655804*G75*G03X40091757Y228268506I50002J-193649D01*G74*G01*X40091757Y228155804*G75*G03X40091757Y227768506I50002J-193649D01*G74*G01*X40091757Y227655804*G75*G03X40091757Y227268506I50002J-193649D01*G74*G01*X40091757Y227155804*G75*G03X40091757Y226768506I50002J-193649D01*G74*G01*X40091757Y226655804*G75*G03X40091757Y226268506I50002J-193649D01*G74*G01*X40091757Y226155804*G75*G03X40091757Y225768506I50002J-193649D01*G74*G01*X40091757Y225655804*G75*G03X40091757Y225268506I50002J-193649D01*G74*G01*X40091757Y225155804*G75*G03X40091757Y224768506I50002J-193649D01*G74*G01*X40091757Y224655804*G75*G03X40091757Y224268506I50002J-193649D01*G74*G01*X40091757Y224155804*G75*G03X40091757Y223768506I50002J-193649D01*G74*G01*X40091757Y223655804*G75*G03X40091757Y223268506I50002J-193649D01*G74*G01*X40091757Y223155804*G75*G03X40091757Y222768506I50002J-193649D01*G74*G01*X40091757Y222655804*G75*G03X40091757Y222268506I50002J-193649D01*G74*G01*X40091757Y222155804*G75*G03X40091757Y221768506I50002J-193649D01*G74*G01*X40091757Y221655804*G75*G03X40091757Y221268506I50002J-193649D01*G74*G01*X40091757Y221155804*G75*G03X40091757Y220768506I50002J-193649D01*G74*G01*X40091757Y220655804*G75*G03X40091757Y220268506I50002J-193649D01*G74*G01*X40091757Y220155804*G75*G03X40091757Y219768506I50002J-193649D01*G74*G01*X40091757Y219655804*G75*G03X40091757Y219268506I50002J-193649D01*G74*G01*X40091757Y219155804*G75*G03X40091757Y218768506I50002J-193649D01*G74*G01*X40091757Y218655804*G75*G03X40091757Y218268506I50002J-193649D01*G74*G01*X40091757Y218155804*G75*G03X40091757Y217768506I50002J-193649D01*G74*G01*X40091757Y217655804*G75*G03X40091757Y217268506I50002J-193649D01*G74*G01*X40091757Y217155804*G75*G03X40091757Y216768506I50002J-193649D01*G74*G01*X40091757Y216655804*G75*G03X40091757Y216268506I50002J-193649D01*G74*G01*X40091757Y216155804*G75*G03X40091757Y215768506I50002J-193649D01*G74*G01*X40091757Y215655804*G75*G03X40091757Y215268506I50002J-193649D01*G74*G01*X40091757Y215155804*G75*G03X40091757Y214768506I50002J-193649D01*G74*G01*X40091757Y214655804*G75*G03X40091757Y214268506I50002J-193649D01*G74*G01*X40091757Y214155804*G75*G03X40091757Y213768506I50002J-193649D01*G74*G01*X40091757Y213655804*G75*G03X40091757Y213268506I50002J-193649D01*G74*G01*X40091757Y213155804*G75*G03X40091757Y212768506I50002J-193649D01*G74*G01*X40091757Y212655804*G75*G03X40091757Y212268506I50002J-193649D01*G74*G01*X40091757Y212155804*G75*G03X40091757Y211768506I50002J-193649D01*G74*G01*X40091757Y211655804*G75*G03X40091757Y211268506I50002J-193649D01*G74*G01*X40091757Y211155804*G75*G03X40091757Y210768506I50002J-193649D01*G74*G01*X40091757Y210655804*G75*G03X40091757Y210268506I50002J-193649D01*G74*G01*X40091757Y210155804*G75*G03X40091757Y209768506I50002J-193649D01*G74*G01*X40091757Y209655804*G75*G03X40091757Y209268506I50002J-193649D01*G74*G01*X40091757Y209155804*G75*G03X40091757Y208768506I50002J-193649D01*G74*G01*X40091757Y208655804*G75*G03X40091757Y208268506I50002J-193649D01*G74*G01*X40091757Y208155804*G75*G03X40091757Y207768506I50002J-193649D01*G74*G01*X40091757Y207655804*G75*G03X40091757Y207268506I50002J-193649D01*G74*G01*X40091757Y207155804*G75*G03X40091757Y206768506I50002J-193649D01*G74*G01*X40091757Y206655804*G75*G03X40091757Y206268506I50002J-193649D01*G74*G01*X40091757Y206155804*G75*G03X40091757Y205768506I50002J-193649D01*G74*G01*X40091757Y205655804*G75*G03X40091757Y205268506I50002J-193649D01*G74*G01*X40091757Y205155804*G75*G03X40091757Y204768506I50002J-193649D01*G74*G01*X40091757Y204655804*G75*G03X40091757Y204268506I50002J-193649D01*G74*G01*X40091757Y204155804*G75*G03X40091757Y203768506I50002J-193649D01*G74*G01*X40091757Y203655804*G75*G03X40091757Y203268506I50002J-193649D01*G74*G01*X40091757Y203155804*G75*G03X40091757Y202768506I50002J-193649D01*G74*G01*X40091757Y202655804*G75*G03X40091757Y202268506I50002J-193649D01*G74*G01*X40091757Y202155804*G75*G03X40091757Y201768506I50002J-193649D01*G74*G01*X40091757Y201655804*G75*G03X40091757Y201268506I50002J-193649D01*G74*G01*X40091757Y201155804*G75*G03X40091757Y200768506I50002J-193649D01*G74*G01*X40091757Y200655804*G75*G03X40091757Y200268506I50002J-193649D01*G74*G01*X40091757Y200155804*G75*G03X40091757Y199768506I50002J-193649D01*G74*G01*X40091757Y199655804*G75*G03X40091757Y199268506I50002J-193649D01*G74*G01*X40091757Y199155804*G75*G03X40091757Y198768506I50002J-193649D01*G74*G01*X40091757Y198655804*G75*G03X40091757Y198268506I50002J-193649D01*G74*G01*X40091757Y198155804*G75*G03X40091757Y197768506I50002J-193649D01*G74*G01*X40091757Y197655804*G75*G03X40091757Y197268506I50002J-193649D01*G74*G01*X40091757Y197155804*G75*G03X40091757Y196768506I50002J-193649D01*G74*G01*X40091757Y196655804*G75*G03X40091757Y196268506I50002J-193649D01*G74*G01*X40091757Y196155804*G75*G03X40091757Y195768506I50002J-193649D01*G74*G01*X40091757Y195655804*G75*G03X40091757Y195268506I50002J-193649D01*G74*G01*X40091757Y195155804*G75*G03X40091757Y194768506I50002J-193649D01*G74*G01*X40091757Y194655804*G75*G03X40091757Y194268506I50002J-193649D01*G74*G01*X40091757Y194155804*G75*G03X40091757Y193768506I50002J-193649D01*G74*G01*X40091757Y193655804*G75*G03X40091757Y193268506I50002J-193649D01*G74*G01*X40091757Y193155804*G75*G03X40091757Y192768506I50002J-193649D01*G74*G01*X40091757Y192655804*G75*G03X40091757Y192268506I50002J-193649D01*G74*G01*X40091757Y192155804*G75*G03X40091757Y191768506I50002J-193649D01*G74*G01*X40091757Y191655804*G75*G03X40091757Y191268506I50002J-193649D01*G74*G01*X40091757Y191155804*G75*G03X40091757Y190768506I50002J-193649D01*G74*G01*X40091757Y190655804*G75*G03X40091757Y190268506I50002J-193649D01*G74*G01*X40091757Y190155804*G75*G03X40091757Y189768506I50002J-193649D01*G74*G01*X40091757Y189655804*G75*G03X40091757Y189268506I50002J-193649D01*G74*G01*X40091757Y189155804*G75*G03X40091757Y188768506I50002J-193649D01*G74*G01*X40091757Y188655804*G75*G03X40091757Y188268506I50002J-193649D01*G74*G01*X40091757Y188155804*G75*G03X40091757Y187768506I50002J-193649D01*G74*G01*X40091757Y187655804*G75*G03X40091757Y187268506I50002J-193649D01*G74*G01*X40091757Y187155804*G75*G03X40091757Y186768506I50002J-193649D01*G74*G01*X40091757Y186655804*G75*G03X40091757Y186268506I50002J-193649D01*G74*G01*X40091757Y186155804*G75*G03X40091757Y185768506I50002J-193649D01*G74*G01*X40091757Y185655804*G75*G03X40091757Y185268506I50002J-193649D01*G74*G01*X40091757Y185155804*G75*G03X40091757Y184768506I50002J-193649D01*G74*G01*X40091757Y184655804*G75*G03X40091757Y184268506I50002J-193649D01*G74*G01*X40091757Y184155804*G75*G03X40091757Y183768506I50002J-193649D01*G74*G01*X40091757Y183655804*G75*G03X40091757Y183268506I50002J-193649D01*G74*G01*X40091757Y183155804*G75*G03X40091757Y182768506I50002J-193649D01*G74*G01*X40091757Y182655804*G75*G03X40091757Y182268506I50002J-193649D01*G74*G01*X40091757Y182155804*G75*G03X40091757Y181768506I50002J-193649D01*G74*G01*X40091757Y181655804*G75*G03X40091757Y181268506I50002J-193649D01*G74*G01*X40091757Y181155804*G75*G03X40091757Y180768506I50002J-193649D01*G74*G01*X40091757Y180655804*G75*G03X40091757Y180268506I50002J-193649D01*G74*G01*X40091757Y180155804*G75*G03X40091757Y179768506I50002J-193649D01*G74*G01*X40091757Y179655804*G75*G03X40091757Y179268506I50002J-193649D01*G74*G01*X40091757Y179155804*G75*G03X40091757Y178768506I50002J-193649D01*G74*G01*X40091757Y178655804*G75*G03X40091757Y178268506I50002J-193649D01*G74*G01*X40091757Y178155804*G75*G03X40091757Y177768506I50002J-193649D01*G74*G01*X40091757Y177655804*G75*G03X40091757Y177268506I50002J-193649D01*G74*G01*X40091757Y177155804*G75*G03X40091757Y176768506I50002J-193649D01*G74*G01*X40091757Y176655804*G75*G03X40091757Y176268506I50002J-193649D01*G74*G01*X40091757Y176155804*G75*G03X40091757Y175768506I50002J-193649D01*G74*G01*X40091757Y175655804*G75*G03X40091757Y175268506I50002J-193649D01*G74*G01*X40091757Y175155804*G75*G03X40091757Y174768506I50002J-193649D01*G74*G01*X40091757Y174655804*G75*G03X40091757Y174268506I50002J-193649D01*G74*G01*X40091757Y174155804*G75*G03X40091757Y173768506I50002J-193649D01*G74*G01*X40091757Y173655804*G75*G03X40091757Y173268506I50002J-193649D01*G74*G01*X40091757Y173155804*G75*G03X40091757Y172768506I50002J-193649D01*G74*G01*X40091757Y172655804*G75*G03X40091757Y172268506I50002J-193649D01*G74*G01*X40091757Y172155804*G75*G03X40091757Y171768506I50002J-193649D01*G74*G01*X40091757Y171655804*G75*G03X40091757Y171268506I50002J-193649D01*G74*G01*X40091757Y171155804*G75*G03X40091757Y170768506I50002J-193649D01*G74*G01*X40091757Y170655804*G75*G03X40091757Y170268506I50002J-193649D01*G74*G01*X40091757Y170155804*G75*G03X40091757Y169768506I50002J-193649D01*G74*G01*X40091757Y169655804*G75*G03X40091757Y169268506I50002J-193649D01*G74*G01*X40091757Y169155804*G75*G03X40091757Y168768506I50002J-193649D01*G74*G01*X40091757Y168655804*G75*G03X40091757Y168268506I50002J-193649D01*G74*G01*X40091757Y168155804*G75*G03X40091757Y167768506I50002J-193649D01*G74*G01*X40091757Y167655804*G75*G03X40091757Y167268506I50002J-193649D01*G74*G01*X40091757Y167155804*G75*G03X40091757Y166768506I50002J-193649D01*G74*G01*X40091757Y166655804*G75*G03X40091757Y166268506I50002J-193649D01*G74*G01*X40091757Y166155804*G75*G03X40091757Y165768506I50002J-193649D01*G74*G01*X40091757Y165655804*G75*G03X40091757Y165268506I50002J-193649D01*G74*G01*X40091757Y165155804*G75*G03X40091757Y164768506I50002J-193649D01*G74*G01*X40091757Y164655804*G75*G03X40091757Y164268506I50002J-193649D01*G74*G01*X40091757Y164155804*G75*G03X40091757Y163768506I50002J-193649D01*G74*G01*X40091757Y163655804*G75*G03X40091757Y163268506I50002J-193649D01*G74*G01*X40091757Y163155804*G75*G03X40091757Y162768506I50002J-193649D01*G74*G01*X40091757Y162655804*G75*G03X40091757Y162268506I50002J-193649D01*G74*G01*X40091757Y162155804*G75*G03X40091757Y161768506I50002J-193649D01*G74*G01*X40091757Y161655804*G75*G03X40091757Y161268506I50002J-193649D01*G74*G01*X40091757Y161155804*G75*G03X40091757Y160768506I50002J-193649D01*G74*G01*X40091757Y160655804*G75*G03X40091757Y160268506I50002J-193649D01*G74*G01*X40091757Y160155804*G75*G03X40091757Y159768506I50002J-193649D01*G74*G01*X40091757Y159655804*G75*G03X40091757Y159268506I50002J-193649D01*G74*G01*X40091757Y159155804*G75*G03X40091757Y158768506I50002J-193649D01*G74*G01*X40091757Y158655804*G75*G03X40091757Y158268506I50002J-193649D01*G74*G01*X40091757Y158155804*G75*G03X40091757Y157768506I50002J-193649D01*G74*G01*X40091757Y157655804*G75*G03X40091757Y157268506I50002J-193649D01*G74*G01*X40091757Y157155804*G75*G03X40091757Y156768506I50002J-193649D01*G74*G01*X40091757Y156655804*G75*G03X40091757Y156268506I50002J-193649D01*G74*G01*X40091757Y156155804*G75*G03X40091757Y155768506I50002J-193649D01*G74*G01*X40091757Y155655804*G75*G03X40091757Y155268506I50002J-193649D01*G74*G01*X40091757Y155155804*G75*G03X40091757Y154768506I50002J-193649D01*G74*G01*X40091757Y154655804*G75*G03X40091757Y154268506I50002J-193649D01*G74*G01*X40091757Y154155804*G75*G03X40091757Y153768506I50002J-193649D01*G74*G01*X40091757Y153655804*G75*G03X40091757Y153268506I50002J-193649D01*G74*G01*X40091757Y153155804*G75*G03X40091757Y152768506I50002J-193649D01*G74*G01*X40091757Y152655804*G75*G03X40091757Y152268506I50002J-193649D01*G74*G01*X40091757Y152155804*G75*G03X40091757Y151768506I50002J-193649D01*G74*G01*X40091757Y151655804*G75*G03X40091757Y151268506I50002J-193649D01*G74*G01*X40091757Y151155804*G75*G03X40091757Y150768506I50002J-193649D01*G74*G01*X40091757Y150655804*G75*G03X40091757Y150268506I50002J-193649D01*G74*G01*X40091757Y150155804*G75*G03X40091757Y149768506I50002J-193649D01*G74*G01*X40091757Y149655804*G75*G03X40091757Y149268506I50002J-193649D01*G74*G01*X40091757Y149155804*G75*G03X40091757Y148768506I50002J-193649D01*G74*G01*X40091757Y148655804*G75*G03X40091757Y148268506I50002J-193649D01*G74*G01*X40091757Y148155804*G75*G03X40091757Y147768506I50002J-193649D01*G74*G01*X40091757Y147655804*G75*G03X40091757Y147268506I50002J-193649D01*G74*G01*X40091757Y147155804*G75*G03X40091757Y146768506I50002J-193649D01*G74*G01*X40091757Y146655804*G75*G03X40091757Y146268506I50002J-193649D01*G74*G01*X40091757Y146155804*G75*G03X40091757Y145768506I50002J-193649D01*G74*G01*X40091757Y145655804*G75*G03X40091757Y145268506I50002J-193649D01*G74*G01*X40091757Y145155804*G75*G03X40091757Y144768506I50002J-193649D01*G74*G01*X40091757Y144655804*G75*G03X40091757Y144268506I50002J-193649D01*G74*G01*X40091757Y144155804*G75*G03X40091757Y143768506I50002J-193649D01*G74*G01*X40091757Y143655804*G75*G03X40091757Y143268506I50002J-193649D01*G74*G01*X40091757Y143155804*G75*G03X40091757Y142768506I50002J-193649D01*G74*G01*X40091757Y142655804*G75*G03X40091757Y142268506I50002J-193649D01*G74*G01*X40091757Y142155804*G75*G03X40091757Y141768506I50002J-193649D01*G74*G01*X40091757Y141655804*G75*G03X40091757Y141268506I50002J-193649D01*G74*G01*X40091757Y141155804*G75*G03X40091757Y140768506I50002J-193649D01*G74*G01*X40091757Y140655804*G75*G03X40091757Y140268506I50002J-193649D01*G74*G01*X40091757Y140155804*G75*G03X40091757Y139768506I50002J-193649D01*G74*G01*X40091757Y139655804*G75*G03X40091757Y139268506I50002J-193649D01*G74*G01*X40091757Y139155804*G75*G03X40091757Y138768506I50002J-193649D01*G74*G01*X40091757Y138655804*G75*G03X40091757Y138268506I50002J-193649D01*G74*G01*X40091757Y138155804*G75*G03X40091757Y137768506I50002J-193649D01*G74*G01*X40091757Y137655804*G75*G03X40091757Y137268506I50002J-193649D01*G74*G01*X40091757Y137155804*G75*G03X40091757Y136768506I50002J-193649D01*G74*G01*X40091757Y136655804*G75*G03X40091757Y136268506I50002J-193649D01*G74*G01*X40091757Y136155804*G75*G03X40091757Y135768506I50002J-193649D01*G74*G01*X40091757Y135655804*G75*G03X40091757Y135268506I50002J-193649D01*G74*G01*X40091757Y135155804*G75*G03X40091757Y134768506I50002J-193649D01*G74*G01*X40091757Y134655804*G75*G03X40091757Y134268506I50002J-193649D01*G74*G01*X40091757Y134155804*G75*G03X40091757Y133768506I50002J-193649D01*G74*G01*X40091757Y133655804*G75*G03X40091757Y133268506I50002J-193649D01*G74*G01*X40091757Y133155804*G75*G03X40091757Y132768506I50002J-193649D01*G74*G01*X40091757Y132655804*G75*G03X40091757Y132268506I50002J-193649D01*G74*G01*X40091757Y132155804*G75*G03X40091757Y131768506I50002J-193649D01*G74*G01*X40091757Y131655804*G75*G03X40091757Y131268506I50002J-193649D01*G74*G01*X40091757Y131155804*G75*G03X40091757Y130768506I50002J-193649D01*G74*G01*X40091757Y130655804*G75*G03X40091757Y130268506I50002J-193649D01*G74*G01*X40091757Y130155804*G75*G03X40091757Y129768506I50002J-193649D01*G74*G01*X40091757Y129655804*G75*G03X40091757Y129268506I50002J-193649D01*G74*G01*X40091757Y129155804*G75*G03X40091757Y128768506I50002J-193649D01*G74*G01*X40091757Y128655804*G75*G03X40091757Y128268506I50002J-193649D01*G74*G01*X40091757Y128155804*G75*G03X40091757Y127768506I50002J-193649D01*G74*G01*X40091757Y127655804*G75*G03X40091757Y127268506I50002J-193649D01*G74*G01*X40091757Y127155804*G75*G03X40091757Y126768506I50002J-193649D01*G74*G01*X40091757Y126655804*G75*G03X40091757Y126268506I50002J-193649D01*G74*G01*X40091757Y126155804*G75*G03X40091757Y125768506I50002J-193649D01*G74*G01*X40091757Y125655804*G75*G03X40091757Y125268506I50002J-193649D01*G74*G01*X40091757Y125155804*G75*G03X40091757Y124768506I50002J-193649D01*G74*G01*X40091757Y124655804*G75*G03X40091757Y124268506I50002J-193649D01*G74*G01*X40091757Y124155804*G75*G03X40091757Y123768506I50002J-193649D01*G74*G01*X40091757Y123655804*G75*G03X40091757Y123268506I50002J-193649D01*G74*G01*X40091757Y123155804*G75*G03X40091757Y122768506I50002J-193649D01*G74*G01*X40091757Y122655804*G75*G03X40091757Y122268506I50002J-193649D01*G74*G01*X40091757Y122155804*G75*G03X40091757Y121768506I50002J-193649D01*G74*G01*X40091757Y121655804*G75*G03X40091757Y121268506I50002J-193649D01*G74*G01*X40091757Y121155804*G75*G03X40091757Y120768506I50002J-193649D01*G74*G01*X40091757Y120655804*G75*G03X40091757Y120268506I50002J-193649D01*G74*G01*X40091757Y120155804*G75*G03X40091757Y119768506I50002J-193649D01*G74*G01*X40091757Y119655804*G75*G03X40091757Y119268506I50002J-193649D01*G74*G01*X40091757Y119155804*G75*G03X40091757Y118768506I50002J-193649D01*G74*G01*X40091757Y118655804*G75*G03X40091757Y118268506I50002J-193649D01*G74*G01*X40091757Y118155804*G75*G03X40091757Y117768506I50002J-193649D01*G74*G01*X40091757Y117655804*G75*G03X40091757Y117268506I50002J-193649D01*G74*G01*X40091757Y117155804*G75*G03X40091757Y116768506I50002J-193649D01*G74*G01*X40091757Y116655804*G75*G03X40091757Y116268506I50002J-193649D01*G74*G01*X40091757Y116155804*G75*G03X40091757Y115768506I50002J-193649D01*G74*G01*X40091757Y115655804*G75*G03X40091757Y115268506I50002J-193649D01*G74*G01*X40091757Y115155804*G75*G03X40091757Y114768506I50002J-193649D01*G74*G01*X40091757Y114655804*G75*G03X40091757Y114268506I50002J-193649D01*G74*G01*X40091757Y114155804*G75*G03X40091757Y113768506I50002J-193649D01*G74*G01*X40091757Y113655804*G75*G03X40091757Y113268506I50002J-193649D01*G74*G01*X40091757Y113155804*G75*G03X40091757Y112768506I50002J-193649D01*G74*G01*X40091757Y112655804*G75*G03X40091757Y112268506I50002J-193649D01*G74*G01*X40091757Y112155804*G75*G03X40091757Y111768506I50002J-193649D01*G74*G01*X40091757Y111655804*G75*G03X40091757Y111268506I50002J-193649D01*G74*G01*X40091757Y111155804*G75*G03X40091757Y110768506I50002J-193649D01*G74*G01*X40091757Y110655804*G75*G03X40091757Y110268506I50002J-193649D01*G74*G01*X40091757Y110155804*G75*G03X40091757Y109768506I50002J-193649D01*G74*G01*X40091757Y109655804*G75*G03X40091757Y109268506I50002J-193649D01*G74*G01*X40091757Y109155804*G75*G03X40091757Y108768506I50002J-193649D01*G74*G01*X40091757Y108655804*G75*G03X40091757Y108268506I50002J-193649D01*G74*G01*X40091757Y108155804*G75*G03X40091757Y107768506I50002J-193649D01*G74*G01*X40091757Y107655804*G75*G03X40091757Y107268506I50002J-193649D01*G74*G01*X40091757Y107155804*G75*G03X40091757Y106768506I50002J-193649D01*G74*G01*X40091757Y106655804*G75*G03X40091757Y106268506I50002J-193649D01*G74*G01*X40091757Y106155804*G75*G03X40091757Y105768506I50002J-193649D01*G74*G01*X40091757Y105655804*G75*G03X40091757Y105268506I50002J-193649D01*G74*G01*X40091757Y105155804*G75*G03X40091757Y104768506I50002J-193649D01*G74*G01*X40091757Y104655804*G75*G03X40091757Y104268506I50002J-193649D01*G74*G01*X40091757Y104155804*G75*G03X40091757Y103768506I50002J-193649D01*G74*G01*X40091757Y103655804*G75*G03X40091757Y103268506I50002J-193649D01*G74*G01*X40091757Y103155804*G75*G03X40091757Y102768506I50002J-193649D01*G74*G01*X40091757Y102655804*G75*G03X40091757Y102268506I50002J-193649D01*G74*G01*X40091757Y102155804*G75*G03X40091757Y101768506I50002J-193649D01*G74*G01*X40091757Y101655804*G75*G03X40091757Y101268506I50002J-193649D01*G74*G01*X40091757Y101155804*G75*G03X40091757Y100768506I50002J-193649D01*G74*G01*X40091757Y100655804*G75*G03X40091757Y100268506I50002J-193649D01*G74*G01*X40091757Y100155804*G75*G03X40091757Y99768506I50002J-193649D01*G74*G01*X40091757Y99655804*G75*G03X40091757Y99268506I50002J-193649D01*G74*G01*X40091757Y99155804*G75*G03X40091757Y98768506I50002J-193649D01*G74*G01*X40091757Y98655804*G75*G03X40091757Y98268506I50002J-193649D01*G74*G01*X40091757Y98155804*G75*G03X40091757Y97768506I50002J-193649D01*G74*G01*X40091757Y97655804*G75*G03X40091757Y97268506I50002J-193649D01*G74*G01*X40091757Y97155804*G75*G03X40091757Y96768506I50002J-193649D01*G74*G01*X40091757Y96655804*G75*G03X40091757Y96268506I50002J-193649D01*G74*G01*X40091757Y96155804*G75*G03X40091757Y95768506I50002J-193649D01*G74*G01*X40091757Y95655804*G75*G03X40091757Y95268506I50002J-193649D01*G74*G01*X40091757Y95155804*G75*G03X40091757Y94768506I50002J-193649D01*G74*G01*X40091757Y94655804*G75*G03X40091757Y94268506I50002J-193649D01*G74*G01*X40091757Y94155804*G75*G03X40091757Y93768506I50002J-193649D01*G74*G01*X40091757Y93655804*G75*G03X40091757Y93268506I50002J-193649D01*G74*G01*X40091757Y93155804*G75*G03X40091757Y92768506I50002J-193649D01*G74*G01*X40091757Y92655804*G75*G03X40091757Y92268506I50002J-193649D01*G74*G01*X40091757Y92155804*G75*G03X40091757Y91768506I50002J-193649D01*G74*G01*X40091757Y91655804*G75*G03X40091757Y91268506I50002J-193649D01*G74*G01*X40091757Y91155804*G75*G03X40091757Y90768506I50002J-193649D01*G74*G01*X40091757Y90655804*G75*G03X40091757Y90268506I50002J-193649D01*G74*G01*X40091757Y90155804*G75*G03X40091757Y89768506I50002J-193649D01*G74*G01*X40091757Y89655804*G75*G03X40091757Y89268506I50002J-193649D01*G74*G01*X40091757Y89155804*G75*G03X40091757Y88768506I50002J-193649D01*G74*G01*X40091757Y88655804*G75*G03X40091757Y88268506I50002J-193649D01*G74*G01*X40091757Y88155804*G75*G03X40091757Y87768506I50002J-193649D01*G74*G01*X40091757Y87655804*X39891757Y87155804*X39766757Y87155804*X39766757Y84655804*X114266757Y82655804*X113517836Y69507892*X113335300Y69166767*X113193019Y68845451*X113141693Y68681025*X113004928Y68242883*X112945738Y68018364*X112791746Y67218364*X112730958Y66858364*X112644357Y65858374*X112649306Y64538374*X112743676Y63538360*X112788900Y63137596*X113210228Y61532157*X113520228Y60944728*X113520464Y60015214*X113520464Y54100214*G75*G03X122253779Y47205114I1250109J-7395081D01*G74*G01*G75*G03X116020464Y54100214I-7483311J-500055D01*G74*G01*X116020230Y60944728*X116330260Y61532214*X116751588Y63137653*X116796812Y63538417*X116891181Y64538431*X116896131Y65858431*X116809529Y66858421*X116748742Y67218421*X116594749Y68018421*X116535560Y68242940*X116398794Y68681082*X116347469Y68845508*X116205188Y69166824*X116017836Y69514063*X116023868Y69502883D01*M02*