G04 EasyGerb 5 for AutoCAD*
G04 Registered to lior.segev@weizmann.ac.il*
G04 RS274-X Output *
%FSLAX34Y34*%
%MOMM*%
%ADD12C,0.127000*%
%ADD13C,0.007000*%
%IPPOS*%

%LNbox_1*%
%LPD*%
G54D12*X5048Y438346D02*X231126Y438346D01*X231126Y2642*X5048Y2642*X5048Y438346D01*
%LNInlets Layer_1*%
%LPC*%
G54D12*X116024Y69503D02*X115267Y82656D01*X189767Y84656*X189767Y87156*X189642Y87156*X189442Y87656*X189442Y87769*G75*G03X189442Y88156I-50J194D01*G74*G01*X189442Y88269*G75*G03X189442Y88656I-50J194D01*G74*G01*X189442Y88769*G75*G03X189442Y89156I-50J194D01*G74*G01*X189442Y89269*G75*G03X189442Y89656I-50J194D01*G74*G01*X189442Y89769*G75*G03X189442Y90156I-50J194D01*G74*G01*X189442Y90269*G75*G03X189442Y90656I-50J194D01*G74*G01*X189442Y90769*G75*G03X189442Y91156I-50J194D01*G74*G01*X189442Y91269*G75*G03X189442Y91656I-50J194D01*G74*G01*X189442Y91769*G75*G03X189442Y92156I-50J194D01*G74*G01*X189442Y92269*G75*G03X189442Y92656I-50J194D01*G74*G01*X189442Y92769*G75*G03X189442Y93156I-50J194D01*G74*G01*X189442Y93269*G75*G03X189442Y93656I-50J194D01*G74*G01*X189442Y93769*G75*G03X189442Y94156I-50J194D01*G74*G01*X189442Y94269*G75*G03X189442Y94656I-50J194D01*G74*G01*X189442Y94769*G75*G03X189442Y95156I-50J194D01*G74*G01*X189442Y95269*G75*G03X189442Y95656I-50J194D01*G74*G01*X189442Y95769*G75*G03X189442Y96156I-50J194D01*G74*G01*X189442Y96269*G75*G03X189442Y96656I-50J194D01*G74*G01*X189442Y96769*G75*G03X189442Y97156I-50J194D01*G74*G01*X189442Y97269*G75*G03X189442Y97656I-50J194D01*G74*G01*X189442Y97769*G75*G03X189442Y98156I-50J194D01*G74*G01*X189442Y98269*G75*G03X189442Y98656I-50J194D01*G74*G01*X189442Y98769*G75*G03X189442Y99156I-50J194D01*G74*G01*X189442Y99269*G75*G03X189442Y99656I-50J194D01*G74*G01*X189442Y99769*G75*G03X189442Y100156I-50J194D01*G74*G01*X189442Y100269*G75*G03X189442Y100656I-50J194D01*G74*G01*X189442Y100769*G75*G03X189442Y101156I-50J194D01*G74*G01*X189442Y101269*G75*G03X189442Y101656I-50J194D01*G74*G01*X189442Y101769*G75*G03X189442Y102156I-50J194D01*G74*G01*X189442Y102269*G75*G03X189442Y102656I-50J194D01*G74*G01*X189442Y102769*G75*G03X189442Y103156I-50J194D01*G74*G01*X189442Y103269*G75*G03X189442Y103656I-50J194D01*G74*G01*X189442Y103769*G75*G03X189442Y104156I-50J194D01*G74*G01*X189442Y104269*G75*G03X189442Y104656I-50J194D01*G74*G01*X189442Y104769*G75*G03X189442Y105156I-50J194D01*G74*G01*X189442Y105269*G75*G03X189442Y105656I-50J194D01*G74*G01*X189442Y105769*G75*G03X189442Y106156I-50J194D01*G74*G01*X189442Y106269*G75*G03X189442Y106656I-50J194D01*G74*G01*X189442Y106769*G75*G03X189442Y107156I-50J194D01*G74*G01*X189442Y107269*G75*G03X189442Y107656I-50J194D01*G74*G01*X189442Y107769*G75*G03X189442Y108156I-50J194D01*G74*G01*X189442Y108269*G75*G03X189442Y108656I-50J194D01*G74*G01*X189442Y108769*G75*G03X189442Y109156I-50J194D01*G74*G01*X189442Y109269*G75*G03X189442Y109656I-50J194D01*G74*G01*X189442Y109769*G75*G03X189442Y110156I-50J194D01*G74*G01*X189442Y110269*G75*G03X189442Y110656I-50J194D01*G74*G01*X189442Y110769*G75*G03X189442Y111156I-50J194D01*G74*G01*X189442Y111269*G75*G03X189442Y111656I-50J194D01*G74*G01*X189442Y111769*G75*G03X189442Y112156I-50J194D01*G74*G01*X189442Y112269*G75*G03X189442Y112656I-50J194D01*G74*G01*X189442Y112769*G75*G03X189442Y113156I-50J194D01*G74*G01*X189442Y113269*G75*G03X189442Y113656I-50J194D01*G74*G01*X189442Y113769*G75*G03X189442Y114156I-50J194D01*G74*G01*X189442Y114269*G75*G03X189442Y114656I-50J194D01*G74*G01*X189442Y114769*G75*G03X189442Y115156I-50J194D01*G74*G01*X189442Y115269*G75*G03X189442Y115656I-50J194D01*G74*G01*X189442Y115769*G75*G03X189442Y116156I-50J194D01*G74*G01*X189442Y116269*G75*G03X189442Y116656I-50J194D01*G74*G01*X189442Y116769*G75*G03X189442Y117156I-50J194D01*G74*G01*X189442Y117269*G75*G03X189442Y117656I-50J194D01*G74*G01*X189442Y117769*G75*G03X189442Y118156I-50J194D01*G74*G01*X189442Y118269*G75*G03X189442Y118656I-50J194D01*G74*G01*X189442Y118769*G75*G03X189442Y119156I-50J194D01*G74*G01*X189442Y119269*G75*G03X189442Y119656I-50J194D01*G74*G01*X189442Y119769*G75*G03X189442Y120156I-50J194D01*G74*G01*X189442Y120269*G75*G03X189442Y120656I-50J194D01*G74*G01*X189442Y120769*G75*G03X189442Y121156I-50J194D01*G74*G01*X189442Y121269*G75*G03X189442Y121656I-50J194D01*G74*G01*X189442Y121769*G75*G03X189442Y122156I-50J194D01*G74*G01*X189442Y122269*G75*G03X189442Y122656I-50J194D01*G74*G01*X189442Y122769*G75*G03X189442Y123156I-50J194D01*G74*G01*X189442Y123269*G75*G03X189442Y123656I-50J194D01*G74*G01*X189442Y123769*G75*G03X189442Y124156I-50J194D01*G74*G01*X189442Y124269*G75*G03X189442Y124656I-50J194D01*G74*G01*X189442Y124769*G75*G03X189442Y125156I-50J194D01*G74*G01*X189442Y125269*G75*G03X189442Y125656I-50J194D01*G74*G01*X189442Y125769*G75*G03X189442Y126156I-50J194D01*G74*G01*X189442Y126269*G75*G03X189442Y126656I-50J194D01*G74*G01*X189442Y126769*G75*G03X189442Y127156I-50J194D01*G74*G01*X189442Y127269*G75*G03X189442Y127656I-50J194D01*G74*G01*X189442Y127769*G75*G03X189442Y128156I-50J194D01*G74*G01*X189442Y128269*G75*G03X189442Y128656I-50J194D01*G74*G01*X189442Y128769*G75*G03X189442Y129156I-50J194D01*G74*G01*X189442Y129269*G75*G03X189442Y129656I-50J194D01*G74*G01*X189442Y129769*G75*G03X189442Y130156I-50J194D01*G74*G01*X189442Y130269*G75*G03X189442Y130656I-50J194D01*G74*G01*X189442Y130769*G75*G03X189442Y131156I-50J194D01*G74*G01*X189442Y131269*G75*G03X189442Y131656I-50J194D01*G74*G01*X189442Y131769*G75*G03X189442Y132156I-50J194D01*G74*G01*X189442Y132269*G75*G03X189442Y132656I-50J194D01*G74*G01*X189442Y132769*G75*G03X189442Y133156I-50J194D01*G74*G01*X189442Y133269*G75*G03X189442Y133656I-50J194D01*G74*G01*X189442Y133769*G75*G03X189442Y134156I-50J194D01*G74*G01*X189442Y134269*G75*G03X189442Y134656I-50J194D01*G74*G01*X189442Y134769*G75*G03X189442Y135156I-50J194D01*G74*G01*X189442Y135269*G75*G03X189442Y135656I-50J194D01*G74*G01*X189442Y135769*G75*G03X189442Y136156I-50J194D01*G74*G01*X189442Y136269*G75*G03X189442Y136656I-50J194D01*G74*G01*X189442Y136769*G75*G03X189442Y137156I-50J194D01*G74*G01*X189442Y137269*G75*G03X189442Y137656I-50J194D01*G74*G01*X189442Y137769*G75*G03X189442Y138156I-50J194D01*G74*G01*X189442Y138269*G75*G03X189442Y138656I-50J194D01*G74*G01*X189442Y138769*G75*G03X189442Y139156I-50J194D01*G74*G01*X189442Y139269*G75*G03X189442Y139656I-50J194D01*G74*G01*X189442Y139769*G75*G03X189442Y140156I-50J194D01*G74*G01*X189442Y140269*G75*G03X189442Y140656I-50J194D01*G74*G01*X189442Y140769*G75*G03X189442Y141156I-50J194D01*G74*G01*X189442Y141269*G75*G03X189442Y141656I-50J194D01*G74*G01*X189442Y141769*G75*G03X189442Y142156I-50J194D01*G74*G01*X189442Y142269*G75*G03X189442Y142656I-50J194D01*G74*G01*X189442Y142769*G75*G03X189442Y143156I-50J194D01*G74*G01*X189442Y143269*G75*G03X189442Y143656I-50J194D01*G74*G01*X189442Y143769*G75*G03X189442Y144156I-50J194D01*G74*G01*X189442Y144269*G75*G03X189442Y144656I-50J194D01*G74*G01*X189442Y144769*G75*G03X189442Y145156I-50J194D01*G74*G01*X189442Y145269*G75*G03X189442Y145656I-50J194D01*G74*G01*X189442Y145769*G75*G03X189442Y146156I-50J194D01*G74*G01*X189442Y146269*G75*G03X189442Y146656I-50J194D01*G74*G01*X189442Y146769*G75*G03X189442Y147156I-50J194D01*G74*G01*X189442Y147269*G75*G03X189442Y147656I-50J194D01*G74*G01*X189442Y147769*G75*G03X189442Y148156I-50J194D01*G74*G01*X189442Y148269*G75*G03X189442Y148656I-50J194D01*G74*G01*X189442Y148769*G75*G03X189442Y149156I-50J194D01*G74*G01*X189442Y149269*G75*G03X189442Y149656I-50J194D01*G74*G01*X189442Y149769*G75*G03X189442Y150156I-50J194D01*G74*G01*X189442Y150269*G75*G03X189442Y150656I-50J194D01*G74*G01*X189442Y150769*G75*G03X189442Y151156I-50J194D01*G74*G01*X189442Y151269*G75*G03X189442Y151656I-50J194D01*G74*G01*X189442Y151769*G75*G03X189442Y152156I-50J194D01*G74*G01*X189442Y152269*G75*G03X189442Y152656I-50J194D01*G74*G01*X189442Y152769*G75*G03X189442Y153156I-50J194D01*G74*G01*X189442Y153269*G75*G03X189442Y153656I-50J194D01*G74*G01*X189442Y153769*G75*G03X189442Y154156I-50J194D01*G74*G01*X189442Y154269*G75*G03X189442Y154656I-50J194D01*G74*G01*X189442Y154769*G75*G03X189442Y155156I-50J194D01*G74*G01*X189442Y155269*G75*G03X189442Y155656I-50J194D01*G74*G01*X189442Y155769*G75*G03X189442Y156156I-50J194D01*G74*G01*X189442Y156269*G75*G03X189442Y156656I-50J194D01*G74*G01*X189442Y156769*G75*G03X189442Y157156I-50J194D01*G74*G01*X189442Y157269*G75*G03X189442Y157656I-50J194D01*G74*G01*X189442Y157769*G75*G03X189442Y158156I-50J194D01*G74*G01*X189442Y158269*G75*G03X189442Y158656I-50J194D01*G74*G01*X189442Y158769*G75*G03X189442Y159156I-50J194D01*G74*G01*X189442Y159269*G75*G03X189442Y159656I-50J194D01*G74*G01*X189442Y159769*G75*G03X189442Y160156I-50J194D01*G74*G01*X189442Y160269*G75*G03X189442Y160656I-50J194D01*G74*G01*X189442Y160769*G75*G03X189442Y161156I-50J194D01*G74*G01*X189442Y161269*G75*G03X189442Y161656I-50J194D01*G74*G01*X189442Y161769*G75*G03X189442Y162156I-50J194D01*G74*G01*X189442Y162269*G75*G03X189442Y162656I-50J194D01*G74*G01*X189442Y162769*G75*G03X189442Y163156I-50J194D01*G74*G01*X189442Y163269*G75*G03X189442Y163656I-50J194D01*G74*G01*X189442Y163769*G75*G03X189442Y164156I-50J194D01*G74*G01*X189442Y164269*G75*G03X189442Y164656I-50J194D01*G74*G01*X189442Y164769*G75*G03X189442Y165156I-50J194D01*G74*G01*X189442Y165269*G75*G03X189442Y165656I-50J194D01*G74*G01*X189442Y165769*G75*G03X189442Y166156I-50J194D01*G74*G01*X189442Y166269*G75*G03X189442Y166656I-50J194D01*G74*G01*X189442Y166769*G75*G03X189442Y167156I-50J194D01*G74*G01*X189442Y167269*G75*G03X189442Y167656I-50J194D01*G74*G01*X189442Y167769*G75*G03X189442Y168156I-50J194D01*G74*G01*X189442Y168269*G75*G03X189442Y168656I-50J194D01*G74*G01*X189442Y168769*G75*G03X189442Y169156I-50J194D01*G74*G01*X189442Y169269*G75*G03X189442Y169656I-50J194D01*G74*G01*X189442Y169769*G75*G03X189442Y170156I-50J194D01*G74*G01*X189442Y170269*G75*G03X189442Y170656I-50J194D01*G74*G01*X189442Y170769*G75*G03X189442Y171156I-50J194D01*G74*G01*X189442Y171269*G75*G03X189442Y171656I-50J194D01*G74*G01*X189442Y171769*G75*G03X189442Y172156I-50J194D01*G74*G01*X189442Y172269*G75*G03X189442Y172656I-50J194D01*G74*G01*X189442Y172769*G75*G03X189442Y173156I-50J194D01*G74*G01*X189442Y173269*G75*G03X189442Y173656I-50J194D01*G74*G01*X189442Y173769*G75*G03X189442Y174156I-50J194D01*G74*G01*X189442Y174269*G75*G03X189442Y174656I-50J194D01*G74*G01*X189442Y174769*G75*G03X189442Y175156I-50J194D01*G74*G01*X189442Y175269*G75*G03X189442Y175656I-50J194D01*G74*G01*X189442Y175769*G75*G03X189442Y176156I-50J194D01*G74*G01*X189442Y176269*G75*G03X189442Y176656I-50J194D01*G74*G01*X189442Y176769*G75*G03X189442Y177156I-50J194D01*G74*G01*X189442Y177269*G75*G03X189442Y177656I-50J194D01*G74*G01*X189442Y177769*G75*G03X189442Y178156I-50J194D01*G74*G01*X189442Y178269*G75*G03X189442Y178656I-50J194D01*G74*G01*X189442Y178769*G75*G03X189442Y179156I-50J194D01*G74*G01*X189442Y179269*G75*G03X189442Y179656I-50J194D01*G74*G01*X189442Y179769*G75*G03X189442Y180156I-50J194D01*G74*G01*X189442Y180269*G75*G03X189442Y180656I-50J194D01*G74*G01*X189442Y180769*G75*G03X189442Y181156I-50J194D01*G74*G01*X189442Y181269*G75*G03X189442Y181656I-50J194D01*G74*G01*X189442Y181769*G75*G03X189442Y182156I-50J194D01*G74*G01*X189442Y182269*G75*G03X189442Y182656I-50J194D01*G74*G01*X189442Y182769*G75*G03X189442Y183156I-50J194D01*G74*G01*X189442Y183269*G75*G03X189442Y183656I-50J194D01*G74*G01*X189442Y183769*G75*G03X189442Y184156I-50J194D01*G74*G01*X189442Y184269*G75*G03X189442Y184656I-50J194D01*G74*G01*X189442Y184769*G75*G03X189442Y185156I-50J194D01*G74*G01*X189442Y185269*G75*G03X189442Y185656I-50J194D01*G74*G01*X189442Y185769*G75*G03X189442Y186156I-50J194D01*G74*G01*X189442Y186269*G75*G03X189442Y186656I-50J194D01*G74*G01*X189442Y186769*G75*G03X189442Y187156I-50J194D01*G74*G01*X189442Y187269*G75*G03X189442Y187656I-50J194D01*G74*G01*X189442Y187769*G75*G03X189442Y188156I-50J194D01*G74*G01*X189442Y188269*G75*G03X189442Y188656I-50J194D01*G74*G01*X189442Y188769*G75*G03X189442Y189156I-50J194D01*G74*G01*X189442Y189269*G75*G03X189442Y189656I-50J194D01*G74*G01*X189442Y189769*G75*G03X189442Y190156I-50J194D01*G74*G01*X189442Y190269*G75*G03X189442Y190656I-50J194D01*G74*G01*X189442Y190769*G75*G03X189442Y191156I-50J194D01*G74*G01*X189442Y191269*G75*G03X189442Y191656I-50J194D01*G74*G01*X189442Y191769*G75*G03X189442Y192156I-50J194D01*G74*G01*X189442Y192269*G75*G03X189442Y192656I-50J194D01*G74*G01*X189442Y192769*G75*G03X189442Y193156I-50J194D01*G74*G01*X189442Y193269*G75*G03X189442Y193656I-50J194D01*G74*G01*X189442Y193769*G75*G03X189442Y194156I-50J194D01*G74*G01*X189442Y194269*G75*G03X189442Y194656I-50J194D01*G74*G01*X189442Y194769*G75*G03X189442Y195156I-50J194D01*G74*G01*X189442Y195269*G75*G03X189442Y195656I-50J194D01*G74*G01*X189442Y195769*G75*G03X189442Y196156I-50J194D01*G74*G01*X189442Y196269*G75*G03X189442Y196656I-50J194D01*G74*G01*X189442Y196769*G75*G03X189442Y197156I-50J194D01*G74*G01*X189442Y197269*G75*G03X189442Y197656I-50J194D01*G74*G01*X189442Y197769*G75*G03X189442Y198156I-50J194D01*G74*G01*X189442Y198269*G75*G03X189442Y198656I-50J194D01*G74*G01*X189442Y198769*G75*G03X189442Y199156I-50J194D01*G74*G01*X189442Y199269*G75*G03X189442Y199656I-50J194D01*G74*G01*X189442Y199769*G75*G03X189442Y200156I-50J194D01*G74*G01*X189442Y200269*G75*G03X189442Y200656I-50J194D01*G74*G01*X189442Y200769*G75*G03X189442Y201156I-50J194D01*G74*G01*X189442Y201269*G75*G03X189442Y201656I-50J194D01*G74*G01*X189442Y201769*G75*G03X189442Y202156I-50J194D01*G74*G01*X189442Y202269*G75*G03X189442Y202656I-50J194D01*G74*G01*X189442Y202769*G75*G03X189442Y203156I-50J194D01*G74*G01*X189442Y203269*G75*G03X189442Y203656I-50J194D01*G74*G01*X189442Y203769*G75*G03X189442Y204156I-50J194D01*G74*G01*X189442Y204269*G75*G03X189442Y204656I-50J194D01*G74*G01*X189442Y204769*G75*G03X189442Y205156I-50J194D01*G74*G01*X189442Y205269*G75*G03X189442Y205656I-50J194D01*G74*G01*X189442Y205769*G75*G03X189442Y206156I-50J194D01*G74*G01*X189442Y206269*G75*G03X189442Y206656I-50J194D01*G74*G01*X189442Y206769*G75*G03X189442Y207156I-50J194D01*G74*G01*X189442Y207269*G75*G03X189442Y207656I-50J194D01*G74*G01*X189442Y207769*G75*G03X189442Y208156I-50J194D01*G74*G01*X189442Y208269*G75*G03X189442Y208656I-50J194D01*G74*G01*X189442Y208769*G75*G03X189442Y209156I-50J194D01*G74*G01*X189442Y209269*G75*G03X189442Y209656I-50J194D01*G74*G01*X189442Y209769*G75*G03X189442Y210156I-50J194D01*G74*G01*X189442Y210269*G75*G03X189442Y210656I-50J194D01*G74*G01*X189442Y210769*G75*G03X189442Y211156I-50J194D01*G74*G01*X189442Y211269*G75*G03X189442Y211656I-50J194D01*G74*G01*X189442Y211769*G75*G03X189442Y212156I-50J194D01*G74*G01*X189442Y212269*G75*G03X189442Y212656I-50J194D01*G74*G01*X189442Y212769*G75*G03X189442Y213156I-50J194D01*G74*G01*X189442Y213269*G75*G03X189442Y213656I-50J194D01*G74*G01*X189442Y213769*G75*G03X189442Y214156I-50J194D01*G74*G01*X189442Y214269*G75*G03X189442Y214656I-50J194D01*G74*G01*X189442Y214769*G75*G03X189442Y215156I-50J194D01*G74*G01*X189442Y215269*G75*G03X189442Y215656I-50J194D01*G74*G01*X189442Y215769*G75*G03X189442Y216156I-50J194D01*G74*G01*X189442Y216269*G75*G03X189442Y216656I-50J194D01*G74*G01*X189442Y216769*G75*G03X189442Y217156I-50J194D01*G74*G01*X189442Y217269*G75*G03X189442Y217656I-50J194D01*G74*G01*X189442Y217769*G75*G03X189442Y218156I-50J194D01*G74*G01*X189442Y218269*G75*G03X189442Y218656I-50J194D01*G74*G01*X189442Y218769*G75*G03X189442Y219156I-50J194D01*G74*G01*X189442Y219269*G75*G03X189442Y219656I-50J194D01*G74*G01*X189442Y219769*G75*G03X189442Y220156I-50J194D01*G74*G01*X189442Y220269*G75*G03X189442Y220656I-50J194D01*G74*G01*X189442Y220769*G75*G03X189442Y221156I-50J194D01*G74*G01*X189442Y221269*G75*G03X189442Y221656I-50J194D01*G74*G01*X189442Y221769*G75*G03X189442Y222156I-50J194D01*G74*G01*X189442Y222269*G75*G03X189442Y222656I-50J194D01*G74*G01*X189442Y222769*G75*G03X189442Y223156I-50J194D01*G74*G01*X189442Y223269*G75*G03X189442Y223656I-50J194D01*G74*G01*X189442Y223769*G75*G03X189442Y224156I-50J194D01*G74*G01*X189442Y224269*G75*G03X189442Y224656I-50J194D01*G74*G01*X189442Y224769*G75*G03X189442Y225156I-50J194D01*G74*G01*X189442Y225269*G75*G03X189442Y225656I-50J194D01*G74*G01*X189442Y225769*G75*G03X189442Y226156I-50J194D01*G74*G01*X189442Y226269*G75*G03X189442Y226656I-50J194D01*G74*G01*X189442Y226769*G75*G03X189442Y227156I-50J194D01*G74*G01*X189442Y227269*G75*G03X189442Y227656I-50J194D01*G74*G01*X189442Y227769*G75*G03X189442Y228156I-50J194D01*G74*G01*X189442Y228269*G75*G03X189442Y228656I-50J194D01*G74*G01*X189442Y228769*G75*G03X189442Y229156I-50J194D01*G74*G01*X189442Y229269*G75*G03X189442Y229656I-50J194D01*G74*G01*X189442Y229769*G75*G03X189442Y230156I-50J194D01*G74*G01*X189442Y230269*G75*G03X189442Y230656I-50J194D01*G74*G01*X189442Y230769*G75*G03X189442Y231156I-50J194D01*G74*G01*X189442Y231269*G75*G03X189442Y231656I-50J194D01*G74*G01*X189442Y231769*G75*G03X189442Y232156I-50J194D01*G74*G01*X189442Y232269*G75*G03X189442Y232656I-50J194D01*G74*G01*X189442Y232769*G75*G03X189442Y233156I-50J194D01*G74*G01*X189442Y233269*G75*G03X189442Y233656I-50J194D01*G74*G01*X189442Y233769*G75*G03X189442Y234156I-50J194D01*G74*G01*X189442Y234269*G75*G03X189442Y234656I-50J194D01*G74*G01*X189442Y234769*G75*G03X189442Y235156I-50J194D01*G74*G01*X189442Y235269*G75*G03X189442Y235656I-50J194D01*G74*G01*X189442Y235769*G75*G03X189442Y236156I-50J194D01*G74*G01*X189442Y236269*G75*G03X189442Y236656I-50J194D01*G74*G01*X189442Y236769*G75*G03X189442Y237156I-50J194D01*G74*G01*X189442Y237269*G75*G03X189442Y237656I-50J194D01*G74*G01*X189442Y238156*X189642Y238656*X189767Y238656*X189767Y244694*X189767Y245194*X125556Y245194*X120134Y245194*X119134Y245194*X119134Y246194*X119134Y251348*X119134Y254200*X129767Y254200*X149767Y254200*X149767Y254700*X149767Y393040*X115767Y393038*G75*G02X115267Y393557I34J533D01*G74*G01*X115772Y393919*X116202Y394715*X116344Y395036*X116395Y395201*X116532Y395639*X116591Y395864*X116745Y396664*X116806Y397024*X116893Y398024*X116888Y399344*X116793Y400344*X116748Y400744*X116327Y402350*X116017Y402937*X116017Y409782*G75*G03X122250Y416677I-1250J7395D01*G74*G01*G75*G03X113517Y409782I-7483J500D01*G74*G01*X113517Y403867*X113517Y402937*X113207Y402350*X112785Y400744*X112740Y400344*X112646Y399344*X112641Y398024*X112727Y397024*X112788Y396664*X112942Y395864*X113001Y395639*X113138Y395201*X113190Y395037*X113332Y394715*X113762Y393912*X114267Y393557*G75*G02X113813Y393040I-539J15D01*G74*G01*X79767Y393040*X79767Y254700*X79767Y254200*X99767Y254200*X110399Y254200*X110399Y251348*X110399Y246194*X110399Y245194*X109399Y245194*X103978Y245194*X39767Y245194*X39767Y244694*X39767Y240656*X39767Y238656*X39892Y238656*X40092Y238156*X40092Y237656*G75*G03X40092Y237269I50J-194D01*G74*G01*X40092Y237156*G75*G03X40092Y236769I50J-194D01*G74*G01*X40092Y236656*G75*G03X40092Y236269I50J-194D01*G74*G01*X40092Y236156*G75*G03X40092Y235769I50J-194D01*G74*G01*X40092Y235656*G75*G03X40092Y235269I50J-194D01*G74*G01*X40092Y235156*G75*G03X40092Y234769I50J-194D01*G74*G01*X40092Y234656*G75*G03X40092Y234269I50J-194D01*G74*G01*X40092Y234156*G75*G03X40092Y233769I50J-194D01*G74*G01*X40092Y233656*G75*G03X40092Y233269I50J-194D01*G74*G01*X40092Y233156*G75*G03X40092Y232769I50J-194D01*G74*G01*X40092Y232656*G75*G03X40092Y232269I50J-194D01*G74*G01*X40092Y232156*G75*G03X40092Y231769I50J-194D01*G74*G01*X40092Y231656*G75*G03X40092Y231269I50J-194D01*G74*G01*X40092Y231156*G75*G03X40092Y230769I50J-194D01*G74*G01*X40092Y230656*G75*G03X40092Y230269I50J-194D01*G74*G01*X40092Y230156*G75*G03X40092Y229769I50J-194D01*G74*G01*X40092Y229656*G75*G03X40092Y229269I50J-194D01*G74*G01*X40092Y229156*G75*G03X40092Y228769I50J-194D01*G74*G01*X40092Y228656*G75*G03X40092Y228269I50J-194D01*G74*G01*X40092Y228156*G75*G03X40092Y227769I50J-194D01*G74*G01*X40092Y227656*G75*G03X40092Y227269I50J-194D01*G74*G01*X40092Y227156*G75*G03X40092Y226769I50J-194D01*G74*G01*X40092Y226656*G75*G03X40092Y226269I50J-194D01*G74*G01*X40092Y226156*G75*G03X40092Y225769I50J-194D01*G74*G01*X40092Y225656*G75*G03X40092Y225269I50J-194D01*G74*G01*X40092Y225156*G75*G03X40092Y224769I50J-194D01*G74*G01*X40092Y224656*G75*G03X40092Y224269I50J-194D01*G74*G01*X40092Y224156*G75*G03X40092Y223769I50J-194D01*G74*G01*X40092Y223656*G75*G03X40092Y223269I50J-194D01*G74*G01*X40092Y223156*G75*G03X40092Y222769I50J-194D01*G74*G01*X40092Y222656*G75*G03X40092Y222269I50J-194D01*G74*G01*X40092Y222156*G75*G03X40092Y221769I50J-194D01*G74*G01*X40092Y221656*G75*G03X40092Y221269I50J-194D01*G74*G01*X40092Y221156*G75*G03X40092Y220769I50J-194D01*G74*G01*X40092Y220656*G75*G03X40092Y220269I50J-194D01*G74*G01*X40092Y220156*G75*G03X40092Y219769I50J-194D01*G74*G01*X40092Y219656*G75*G03X40092Y219269I50J-194D01*G74*G01*X40092Y219156*G75*G03X40092Y218769I50J-194D01*G74*G01*X40092Y218656*G75*G03X40092Y218269I50J-194D01*G74*G01*X40092Y218156*G75*G03X40092Y217769I50J-194D01*G74*G01*X40092Y217656*G75*G03X40092Y217269I50J-194D01*G74*G01*X40092Y217156*G75*G03X40092Y216769I50J-194D01*G74*G01*X40092Y216656*G75*G03X40092Y216269I50J-194D01*G74*G01*X40092Y216156*G75*G03X40092Y215769I50J-194D01*G74*G01*X40092Y215656*G75*G03X40092Y215269I50J-194D01*G74*G01*X40092Y215156*G75*G03X40092Y214769I50J-194D01*G74*G01*X40092Y214656*G75*G03X40092Y214269I50J-194D01*G74*G01*X40092Y214156*G75*G03X40092Y213769I50J-194D01*G74*G01*X40092Y213656*G75*G03X40092Y213269I50J-194D01*G74*G01*X40092Y213156*G75*G03X40092Y212769I50J-194D01*G74*G01*X40092Y212656*G75*G03X40092Y212269I50J-194D01*G74*G01*X40092Y212156*G75*G03X40092Y211769I50J-194D01*G74*G01*X40092Y211656*G75*G03X40092Y211269I50J-194D01*G74*G01*X40092Y211156*G75*G03X40092Y210769I50J-194D01*G74*G01*X40092Y210656*G75*G03X40092Y210269I50J-194D01*G74*G01*X40092Y210156*G75*G03X40092Y209769I50J-194D01*G74*G01*X40092Y209656*G75*G03X40092Y209269I50J-194D01*G74*G01*X40092Y209156*G75*G03X40092Y208769I50J-194D01*G74*G01*X40092Y208656*G75*G03X40092Y208269I50J-194D01*G74*G01*X40092Y208156*G75*G03X40092Y207769I50J-194D01*G74*G01*X40092Y207656*G75*G03X40092Y207269I50J-194D01*G74*G01*X40092Y207156*G75*G03X40092Y206769I50J-194D01*G74*G01*X40092Y206656*G75*G03X40092Y206269I50J-194D01*G74*G01*X40092Y206156*G75*G03X40092Y205769I50J-194D01*G74*G01*X40092Y205656*G75*G03X40092Y205269I50J-194D01*G74*G01*X40092Y205156*G75*G03X40092Y204769I50J-194D01*G74*G01*X40092Y204656*G75*G03X40092Y204269I50J-194D01*G74*G01*X40092Y204156*G75*G03X40092Y203769I50J-194D01*G74*G01*X40092Y203656*G75*G03X40092Y203269I50J-194D01*G74*G01*X40092Y203156*G75*G03X40092Y202769I50J-194D01*G74*G01*X40092Y202656*G75*G03X40092Y202269I50J-194D01*G74*G01*X40092Y202156*G75*G03X40092Y201769I50J-194D01*G74*G01*X40092Y201656*G75*G03X40092Y201269I50J-194D01*G74*G01*X40092Y201156*G75*G03X40092Y200769I50J-194D01*G74*G01*X40092Y200656*G75*G03X40092Y200269I50J-194D01*G74*G01*X40092Y200156*G75*G03X40092Y199769I50J-194D01*G74*G01*X40092Y199656*G75*G03X40092Y199269I50J-194D01*G74*G01*X40092Y199156*G75*G03X40092Y198769I50J-194D01*G74*G01*X40092Y198656*G75*G03X40092Y198269I50J-194D01*G74*G01*X40092Y198156*G75*G03X40092Y197769I50J-194D01*G74*G01*X40092Y197656*G75*G03X40092Y197269I50J-194D01*G74*G01*X40092Y197156*G75*G03X40092Y196769I50J-194D01*G74*G01*X40092Y196656*G75*G03X40092Y196269I50J-194D01*G74*G01*X40092Y196156*G75*G03X40092Y195769I50J-194D01*G74*G01*X40092Y195656*G75*G03X40092Y195269I50J-194D01*G74*G01*X40092Y195156*G75*G03X40092Y194769I50J-194D01*G74*G01*X40092Y194656*G75*G03X40092Y194269I50J-194D01*G74*G01*X40092Y194156*G75*G03X40092Y193769I50J-194D01*G74*G01*X40092Y193656*G75*G03X40092Y193269I50J-194D01*G74*G01*X40092Y193156*G75*G03X40092Y192769I50J-194D01*G74*G01*X40092Y192656*G75*G03X40092Y192269I50J-194D01*G74*G01*X40092Y192156*G75*G03X40092Y191769I50J-194D01*G74*G01*X40092Y191656*G75*G03X40092Y191269I50J-194D01*G74*G01*X40092Y191156*G75*G03X40092Y190769I50J-194D01*G74*G01*X40092Y190656*G75*G03X40092Y190269I50J-194D01*G74*G01*X40092Y190156*G75*G03X40092Y189769I50J-194D01*G74*G01*X40092Y189656*G75*G03X40092Y189269I50J-194D01*G74*G01*X40092Y189156*G75*G03X40092Y188769I50J-194D01*G74*G01*X40092Y188656*G75*G03X40092Y188269I50J-194D01*G74*G01*X40092Y188156*G75*G03X40092Y187769I50J-194D01*G74*G01*X40092Y187656*G75*G03X40092Y187269I50J-194D01*G74*G01*X40092Y187156*G75*G03X40092Y186769I50J-194D01*G74*G01*X40092Y186656*G75*G03X40092Y186269I50J-194D01*G74*G01*X40092Y186156*G75*G03X40092Y185769I50J-194D01*G74*G01*X40092Y185656*G75*G03X40092Y185269I50J-194D01*G74*G01*X40092Y185156*G75*G03X40092Y184769I50J-194D01*G74*G01*X40092Y184656*G75*G03X40092Y184269I50J-194D01*G74*G01*X40092Y184156*G75*G03X40092Y183769I50J-194D01*G74*G01*X40092Y183656*G75*G03X40092Y183269I50J-194D01*G74*G01*X40092Y183156*G75*G03X40092Y182769I50J-194D01*G74*G01*X40092Y182656*G75*G03X40092Y182269I50J-194D01*G74*G01*X40092Y182156*G75*G03X40092Y181769I50J-194D01*G74*G01*X40092Y181656*G75*G03X40092Y181269I50J-194D01*G74*G01*X40092Y181156*G75*G03X40092Y180769I50J-194D01*G74*G01*X40092Y180656*G75*G03X40092Y180269I50J-194D01*G74*G01*X40092Y180156*G75*G03X40092Y179769I50J-194D01*G74*G01*X40092Y179656*G75*G03X40092Y179269I50J-194D01*G74*G01*X40092Y179156*G75*G03X40092Y178769I50J-194D01*G74*G01*X40092Y178656*G75*G03X40092Y178269I50J-194D01*G74*G01*X40092Y178156*G75*G03X40092Y177769I50J-194D01*G74*G01*X40092Y177656*G75*G03X40092Y177269I50J-194D01*G74*G01*X40092Y177156*G75*G03X40092Y176769I50J-194D01*G74*G01*X40092Y176656*G75*G03X40092Y176269I50J-194D01*G74*G01*X40092Y176156*G75*G03X40092Y175769I50J-194D01*G74*G01*X40092Y175656*G75*G03X40092Y175269I50J-194D01*G74*G01*X40092Y175156*G75*G03X40092Y174769I50J-194D01*G74*G01*X40092Y174656*G75*G03X40092Y174269I50J-194D01*G74*G01*X40092Y174156*G75*G03X40092Y173769I50J-194D01*G74*G01*X40092Y173656*G75*G03X40092Y173269I50J-194D01*G74*G01*X40092Y173156*G75*G03X40092Y172769I50J-194D01*G74*G01*X40092Y172656*G75*G03X40092Y172269I50J-194D01*G74*G01*X40092Y172156*G75*G03X40092Y171769I50J-194D01*G74*G01*X40092Y171656*G75*G03X40092Y171269I50J-194D01*G74*G01*X40092Y171156*G75*G03X40092Y170769I50J-194D01*G74*G01*X40092Y170656*G75*G03X40092Y170269I50J-194D01*G74*G01*X40092Y170156*G75*G03X40092Y169769I50J-194D01*G74*G01*X40092Y169656*G75*G03X40092Y169269I50J-194D01*G74*G01*X40092Y169156*G75*G03X40092Y168769I50J-194D01*G74*G01*X40092Y168656*G75*G03X40092Y168269I50J-194D01*G74*G01*X40092Y168156*G75*G03X40092Y167769I50J-194D01*G74*G01*X40092Y167656*G75*G03X40092Y167269I50J-194D01*G74*G01*X40092Y167156*G75*G03X40092Y166769I50J-194D01*G74*G01*X40092Y166656*G75*G03X40092Y166269I50J-194D01*G74*G01*X40092Y166156*G75*G03X40092Y165769I50J-194D01*G74*G01*X40092Y165656*G75*G03X40092Y165269I50J-194D01*G74*G01*X40092Y165156*G75*G03X40092Y164769I50J-194D01*G74*G01*X40092Y164656*G75*G03X40092Y164269I50J-194D01*G74*G01*X40092Y164156*G75*G03X40092Y163769I50J-194D01*G74*G01*X40092Y163656*G75*G03X40092Y163269I50J-194D01*G74*G01*X40092Y163156*G75*G03X40092Y162769I50J-194D01*G74*G01*X40092Y162656*G75*G03X40092Y162269I50J-194D01*G74*G01*X40092Y162156*G75*G03X40092Y161769I50J-194D01*G74*G01*X40092Y161656*G75*G03X40092Y161269I50J-194D01*G74*G01*X40092Y161156*G75*G03X40092Y160769I50J-194D01*G74*G01*X40092Y160656*G75*G03X40092Y160269I50J-194D01*G74*G01*X40092Y160156*G75*G03X40092Y159769I50J-194D01*G74*G01*X40092Y159656*G75*G03X40092Y159269I50J-194D01*G74*G01*X40092Y159156*G75*G03X40092Y158769I50J-194D01*G74*G01*X40092Y158656*G75*G03X40092Y158269I50J-194D01*G74*G01*X40092Y158156*G75*G03X40092Y157769I50J-194D01*G74*G01*X40092Y157656*G75*G03X40092Y157269I50J-194D01*G74*G01*X40092Y157156*G75*G03X40092Y156769I50J-194D01*G74*G01*X40092Y156656*G75*G03X40092Y156269I50J-194D01*G74*G01*X40092Y156156*G75*G03X40092Y155769I50J-194D01*G74*G01*X40092Y155656*G75*G03X40092Y155269I50J-194D01*G74*G01*X40092Y155156*G75*G03X40092Y154769I50J-194D01*G74*G01*X40092Y154656*G75*G03X40092Y154269I50J-194D01*G74*G01*X40092Y154156*G75*G03X40092Y153769I50J-194D01*G74*G01*X40092Y153656*G75*G03X40092Y153269I50J-194D01*G74*G01*X40092Y153156*G75*G03X40092Y152769I50J-194D01*G74*G01*X40092Y152656*G75*G03X40092Y152269I50J-194D01*G74*G01*X40092Y152156*G75*G03X40092Y151769I50J-194D01*G74*G01*X40092Y151656*G75*G03X40092Y151269I50J-194D01*G74*G01*X40092Y151156*G75*G03X40092Y150769I50J-194D01*G74*G01*X40092Y150656*G75*G03X40092Y150269I50J-194D01*G74*G01*X40092Y150156*G75*G03X40092Y149769I50J-194D01*G74*G01*X40092Y149656*G75*G03X40092Y149269I50J-194D01*G74*G01*X40092Y149156*G75*G03X40092Y148769I50J-194D01*G74*G01*X40092Y148656*G75*G03X40092Y148269I50J-194D01*G74*G01*X40092Y148156*G75*G03X40092Y147769I50J-194D01*G74*G01*X40092Y147656*G75*G03X40092Y147269I50J-194D01*G74*G01*X40092Y147156*G75*G03X40092Y146769I50J-194D01*G74*G01*X40092Y146656*G75*G03X40092Y146269I50J-194D01*G74*G01*X40092Y146156*G75*G03X40092Y145769I50J-194D01*G74*G01*X40092Y145656*G75*G03X40092Y145269I50J-194D01*G74*G01*X40092Y145156*G75*G03X40092Y144769I50J-194D01*G74*G01*X40092Y144656*G75*G03X40092Y144269I50J-194D01*G74*G01*X40092Y144156*G75*G03X40092Y143769I50J-194D01*G74*G01*X40092Y143656*G75*G03X40092Y143269I50J-194D01*G74*G01*X40092Y143156*G75*G03X40092Y142769I50J-194D01*G74*G01*X40092Y142656*G75*G03X40092Y142269I50J-194D01*G74*G01*X40092Y142156*G75*G03X40092Y141769I50J-194D01*G74*G01*X40092Y141656*G75*G03X40092Y141269I50J-194D01*G74*G01*X40092Y141156*G75*G03X40092Y140769I50J-194D01*G74*G01*X40092Y140656*G75*G03X40092Y140269I50J-194D01*G74*G01*X40092Y140156*G75*G03X40092Y139769I50J-194D01*G74*G01*X40092Y139656*G75*G03X40092Y139269I50J-194D01*G74*G01*X40092Y139156*G75*G03X40092Y138769I50J-194D01*G74*G01*X40092Y138656*G75*G03X40092Y138269I50J-194D01*G74*G01*X40092Y138156*G75*G03X40092Y137769I50J-194D01*G74*G01*X40092Y137656*G75*G03X40092Y137269I50J-194D01*G74*G01*X40092Y137156*G75*G03X40092Y136769I50J-194D01*G74*G01*X40092Y136656*G75*G03X40092Y136269I50J-194D01*G74*G01*X40092Y136156*G75*G03X40092Y135769I50J-194D01*G74*G01*X40092Y135656*G75*G03X40092Y135269I50J-194D01*G74*G01*X40092Y135156*G75*G03X40092Y134769I50J-194D01*G74*G01*X40092Y134656*G75*G03X40092Y134269I50J-194D01*G74*G01*X40092Y134156*G75*G03X40092Y133769I50J-194D01*G74*G01*X40092Y133656*G75*G03X40092Y133269I50J-194D01*G74*G01*X40092Y133156*G75*G03X40092Y132769I50J-194D01*G74*G01*X40092Y132656*G75*G03X40092Y132269I50J-194D01*G74*G01*X40092Y132156*G75*G03X40092Y131769I50J-194D01*G74*G01*X40092Y131656*G75*G03X40092Y131269I50J-194D01*G74*G01*X40092Y131156*G75*G03X40092Y130769I50J-194D01*G74*G01*X40092Y130656*G75*G03X40092Y130269I50J-194D01*G74*G01*X40092Y130156*G75*G03X40092Y129769I50J-194D01*G74*G01*X40092Y129656*G75*G03X40092Y129269I50J-194D01*G74*G01*X40092Y129156*G75*G03X40092Y128769I50J-194D01*G74*G01*X40092Y128656*G75*G03X40092Y128269I50J-194D01*G74*G01*X40092Y128156*G75*G03X40092Y127769I50J-194D01*G74*G01*X40092Y127656*G75*G03X40092Y127269I50J-194D01*G74*G01*X40092Y127156*G75*G03X40092Y126769I50J-194D01*G74*G01*X40092Y126656*G75*G03X40092Y126269I50J-194D01*G74*G01*X40092Y126156*G75*G03X40092Y125769I50J-194D01*G74*G01*X40092Y125656*G75*G03X40092Y125269I50J-194D01*G74*G01*X40092Y125156*G75*G03X40092Y124769I50J-194D01*G74*G01*X40092Y124656*G75*G03X40092Y124269I50J-194D01*G74*G01*X40092Y124156*G75*G03X40092Y123769I50J-194D01*G74*G01*X40092Y123656*G75*G03X40092Y123269I50J-194D01*G74*G01*X40092Y123156*G75*G03X40092Y122769I50J-194D01*G74*G01*X40092Y122656*G75*G03X40092Y122269I50J-194D01*G74*G01*X40092Y122156*G75*G03X40092Y121769I50J-194D01*G74*G01*X40092Y121656*G75*G03X40092Y121269I50J-194D01*G74*G01*X40092Y121156*G75*G03X40092Y120769I50J-194D01*G74*G01*X40092Y120656*G75*G03X40092Y120269I50J-194D01*G74*G01*X40092Y120156*G75*G03X40092Y119769I50J-194D01*G74*G01*X40092Y119656*G75*G03X40092Y119269I50J-194D01*G74*G01*X40092Y119156*G75*G03X40092Y118769I50J-194D01*G74*G01*X40092Y118656*G75*G03X40092Y118269I50J-194D01*G74*G01*X40092Y118156*G75*G03X40092Y117769I50J-194D01*G74*G01*X40092Y117656*G75*G03X40092Y117269I50J-194D01*G74*G01*X40092Y117156*G75*G03X40092Y116769I50J-194D01*G74*G01*X40092Y116656*G75*G03X40092Y116269I50J-194D01*G74*G01*X40092Y116156*G75*G03X40092Y115769I50J-194D01*G74*G01*X40092Y115656*G75*G03X40092Y115269I50J-194D01*G74*G01*X40092Y115156*G75*G03X40092Y114769I50J-194D01*G74*G01*X40092Y114656*G75*G03X40092Y114269I50J-194D01*G74*G01*X40092Y114156*G75*G03X40092Y113769I50J-194D01*G74*G01*X40092Y113656*G75*G03X40092Y113269I50J-194D01*G74*G01*X40092Y113156*G75*G03X40092Y112769I50J-194D01*G74*G01*X40092Y112656*G75*G03X40092Y112269I50J-194D01*G74*G01*X40092Y112156*G75*G03X40092Y111769I50J-194D01*G74*G01*X40092Y111656*G75*G03X40092Y111269I50J-194D01*G74*G01*X40092Y111156*G75*G03X40092Y110769I50J-194D01*G74*G01*X40092Y110656*G75*G03X40092Y110269I50J-194D01*G74*G01*X40092Y110156*G75*G03X40092Y109769I50J-194D01*G74*G01*X40092Y109656*G75*G03X40092Y109269I50J-194D01*G74*G01*X40092Y109156*G75*G03X40092Y108769I50J-194D01*G74*G01*X40092Y108656*G75*G03X40092Y108269I50J-194D01*G74*G01*X40092Y108156*G75*G03X40092Y107769I50J-194D01*G74*G01*X40092Y107656*G75*G03X40092Y107269I50J-194D01*G74*G01*X40092Y107156*G75*G03X40092Y106769I50J-194D01*G74*G01*X40092Y106656*G75*G03X40092Y106269I50J-194D01*G74*G01*X40092Y106156*G75*G03X40092Y105769I50J-194D01*G74*G01*X40092Y105656*G75*G03X40092Y105269I50J-194D01*G74*G01*X40092Y105156*G75*G03X40092Y104769I50J-194D01*G74*G01*X40092Y104656*G75*G03X40092Y104269I50J-194D01*G74*G01*X40092Y104156*G75*G03X40092Y103769I50J-194D01*G74*G01*X40092Y103656*G75*G03X40092Y103269I50J-194D01*G74*G01*X40092Y103156*G75*G03X40092Y102769I50J-194D01*G74*G01*X40092Y102656*G75*G03X40092Y102269I50J-194D01*G74*G01*X40092Y102156*G75*G03X40092Y101769I50J-194D01*G74*G01*X40092Y101656*G75*G03X40092Y101269I50J-194D01*G74*G01*X40092Y101156*G75*G03X40092Y100769I50J-194D01*G74*G01*X40092Y100656*G75*G03X40092Y100269I50J-194D01*G74*G01*X40092Y100156*G75*G03X40092Y99769I50J-194D01*G74*G01*X40092Y99656*G75*G03X40092Y99269I50J-194D01*G74*G01*X40092Y99156*G75*G03X40092Y98769I50J-194D01*G74*G01*X40092Y98656*G75*G03X40092Y98269I50J-194D01*G74*G01*X40092Y98156*G75*G03X40092Y97769I50J-194D01*G74*G01*X40092Y97656*G75*G03X40092Y97269I50J-194D01*G74*G01*X40092Y97156*G75*G03X40092Y96769I50J-194D01*G74*G01*X40092Y96656*G75*G03X40092Y96269I50J-194D01*G74*G01*X40092Y96156*G75*G03X40092Y95769I50J-194D01*G74*G01*X40092Y95656*G75*G03X40092Y95269I50J-194D01*G74*G01*X40092Y95156*G75*G03X40092Y94769I50J-194D01*G74*G01*X40092Y94656*G75*G03X40092Y94269I50J-194D01*G74*G01*X40092Y94156*G75*G03X40092Y93769I50J-194D01*G74*G01*X40092Y93656*G75*G03X40092Y93269I50J-194D01*G74*G01*X40092Y93156*G75*G03X40092Y92769I50J-194D01*G74*G01*X40092Y92656*G75*G03X40092Y92269I50J-194D01*G74*G01*X40092Y92156*G75*G03X40092Y91769I50J-194D01*G74*G01*X40092Y91656*G75*G03X40092Y91269I50J-194D01*G74*G01*X40092Y91156*G75*G03X40092Y90769I50J-194D01*G74*G01*X40092Y90656*G75*G03X40092Y90269I50J-194D01*G74*G01*X40092Y90156*G75*G03X40092Y89769I50J-194D01*G74*G01*X40092Y89656*G75*G03X40092Y89269I50J-194D01*G74*G01*X40092Y89156*G75*G03X40092Y88769I50J-194D01*G74*G01*X40092Y88656*G75*G03X40092Y88269I50J-194D01*G74*G01*X40092Y88156*G75*G03X40092Y87769I50J-194D01*G74*G01*X40092Y87656*X39892Y87156*X39767Y87156*X39767Y84656*X114267Y82656*X113518Y69508*X113335Y69167*X113193Y68845*X113142Y68681*X113005Y68243*X112946Y68018*X112792Y67218*X112731Y66858*X112644Y65858*X112649Y64538*X112744Y63538*X112789Y63138*X113210Y61532*X113520Y60945*X113520Y60015*X113520Y54100*G75*G03X122254Y47205I1250J-7395D01*G74*G01*G75*G03X116020Y54100I-7483J-500D01*G74*G01*X116020Y60945*X116330Y61532*X116752Y63138*X116797Y63538*X116891Y64538*X116896Y65858*X116810Y66858*X116749Y67218*X116595Y68018*X116536Y68243*X116399Y68681*X116347Y68846*X116205Y69167*X116018Y69514*X116024Y69503D01*M02*