G04 EasyGerb 5 for AutoCAD*
G04 Registered to lior.segev@weizmann.ac.il*
G04 RS274-X Output *
%FSLAX34Y34*%
%MOMM*%
%ADD12C,0.127000*%
%ADD13C,0.007000*%
%IPPOS*%

%LNbox_1*%
%LPD*%
G54D12*X65211464Y129685257D02*X291290029Y129685257D01*X291290029Y-306019075*X65211464Y-306019075*X65211464Y129685257D01*
%LNInlets Layer_1*%
%LPC*%
G54D12*X176187789Y-239157906D02*X175430679Y-226004984D01*X249930679Y-224004984*X249930679Y-221504984*X249805679Y-221504984*X249605679Y-221004984*X249605679Y-220892283*G75*G03X249605679Y-220504984I-50001J193649D01*G74*G01*X249605679Y-220392283*G75*G03X249605679Y-220004984I-50001J193649D01*G74*G01*X249605679Y-219892283*G75*G03X249605679Y-219504984I-50001J193649D01*G74*G01*X249605679Y-219392283*G75*G03X249605679Y-219004984I-50001J193649D01*G74*G01*X249605679Y-218892283*G75*G03X249605679Y-218504984I-50001J193649D01*G74*G01*X249605679Y-218392283*G75*G03X249605679Y-218004984I-50001J193649D01*G74*G01*X249605679Y-217892283*G75*G03X249605679Y-217504984I-50001J193649D01*G74*G01*X249605679Y-217392283*G75*G03X249605679Y-217004984I-50001J193649D01*G74*G01*X249605679Y-216892283*G75*G03X249605679Y-216504984I-50001J193649D01*G74*G01*X249605679Y-216392283*G75*G03X249605679Y-216004984I-50001J193649D01*G74*G01*X249605679Y-215892283*G75*G03X249605679Y-215504984I-50001J193649D01*G74*G01*X249605679Y-215392283*G75*G03X249605679Y-215004984I-50001J193649D01*G74*G01*X249605679Y-214892283*G75*G03X249605679Y-214504984I-50001J193649D01*G74*G01*X249605679Y-214392283*G75*G03X249605679Y-214004984I-50001J193649D01*G74*G01*X249605679Y-213892283*G75*G03X249605679Y-213504984I-50001J193649D01*G74*G01*X249605679Y-213392283*G75*G03X249605679Y-213004984I-50001J193649D01*G74*G01*X249605679Y-212892283*G75*G03X249605679Y-212504984I-50001J193649D01*G74*G01*X249605679Y-212392283*G75*G03X249605679Y-212004984I-50001J193649D01*G74*G01*X249605679Y-211892283*G75*G03X249605679Y-211504984I-50001J193649D01*G74*G01*X249605679Y-211392283*G75*G03X249605679Y-211004984I-50001J193649D01*G74*G01*X249605679Y-210892283*G75*G03X249605679Y-210504984I-50001J193649D01*G74*G01*X249605679Y-210392283*G75*G03X249605679Y-210004984I-50001J193649D01*G74*G01*X249605679Y-209892283*G75*G03X249605679Y-209504984I-50001J193649D01*G74*G01*X249605679Y-209392283*G75*G03X249605679Y-209004984I-50001J193649D01*G74*G01*X249605679Y-208892283*G75*G03X249605679Y-208504984I-50001J193649D01*G74*G01*X249605679Y-208392283*G75*G03X249605679Y-208004984I-50001J193649D01*G74*G01*X249605679Y-207892283*G75*G03X249605679Y-207504984I-50001J193649D01*G74*G01*X249605679Y-207392283*G75*G03X249605679Y-207004984I-50001J193649D01*G74*G01*X249605679Y-206892283*G75*G03X249605679Y-206504984I-50001J193649D01*G74*G01*X249605679Y-206392283*G75*G03X249605679Y-206004984I-50001J193649D01*G74*G01*X249605679Y-205892283*G75*G03X249605679Y-205504984I-50001J193649D01*G74*G01*X249605679Y-205392283*G75*G03X249605679Y-205004984I-50001J193649D01*G74*G01*X249605679Y-204892283*G75*G03X249605679Y-204504984I-50001J193649D01*G74*G01*X249605679Y-204392283*G75*G03X249605679Y-204004984I-50001J193649D01*G74*G01*X249605679Y-203892283*G75*G03X249605679Y-203504984I-50001J193649D01*G74*G01*X249605679Y-203392283*G75*G03X249605679Y-203004984I-50001J193649D01*G74*G01*X249605679Y-202892283*G75*G03X249605679Y-202504984I-50001J193649D01*G74*G01*X249605679Y-202392283*G75*G03X249605679Y-202004984I-50001J193649D01*G74*G01*X249605679Y-201892283*G75*G03X249605679Y-201504984I-50001J193649D01*G74*G01*X249605679Y-201392283*G75*G03X249605679Y-201004984I-50001J193649D01*G74*G01*X249605679Y-200892283*G75*G03X249605679Y-200504984I-50001J193649D01*G74*G01*X249605679Y-200392283*G75*G03X249605679Y-200004984I-50001J193649D01*G74*G01*X249605679Y-199892283*G75*G03X249605679Y-199504984I-50001J193649D01*G74*G01*X249605679Y-199392283*G75*G03X249605679Y-199004984I-50001J193649D01*G74*G01*X249605679Y-198892283*G75*G03X249605679Y-198504984I-50001J193649D01*G74*G01*X249605679Y-198392283*G75*G03X249605679Y-198004984I-50001J193649D01*G74*G01*X249605679Y-197892283*G75*G03X249605679Y-197504984I-50001J193649D01*G74*G01*X249605679Y-197392283*G75*G03X249605679Y-197004984I-50001J193649D01*G74*G01*X249605679Y-196892283*G75*G03X249605679Y-196504984I-50001J193649D01*G74*G01*X249605679Y-196392283*G75*G03X249605679Y-196004984I-50001J193649D01*G74*G01*X249605679Y-195892283*G75*G03X249605679Y-195504984I-50001J193649D01*G74*G01*X249605679Y-195392283*G75*G03X249605679Y-195004984I-50001J193649D01*G74*G01*X249605679Y-194892283*G75*G03X249605679Y-194504984I-50001J193649D01*G74*G01*X249605679Y-194392283*G75*G03X249605679Y-194004984I-50001J193649D01*G74*G01*X249605679Y-193892283*G75*G03X249605679Y-193504984I-50001J193649D01*G74*G01*X249605679Y-193392283*G75*G03X249605679Y-193004984I-50001J193649D01*G74*G01*X249605679Y-192892283*G75*G03X249605679Y-192504984I-50001J193649D01*G74*G01*X249605679Y-192392283*G75*G03X249605679Y-192004984I-50001J193649D01*G74*G01*X249605679Y-191892283*G75*G03X249605679Y-191504984I-50001J193649D01*G74*G01*X249605679Y-191392283*G75*G03X249605679Y-191004984I-50001J193649D01*G74*G01*X249605679Y-190892283*G75*G03X249605679Y-190504984I-50001J193649D01*G74*G01*X249605679Y-190392283*G75*G03X249605679Y-190004984I-50001J193649D01*G74*G01*X249605679Y-189892283*G75*G03X249605679Y-189504984I-50001J193649D01*G74*G01*X249605679Y-189392283*G75*G03X249605679Y-189004984I-50001J193649D01*G74*G01*X249605679Y-188892283*G75*G03X249605679Y-188504984I-50001J193649D01*G74*G01*X249605679Y-188392283*G75*G03X249605679Y-188004984I-50001J193649D01*G74*G01*X249605679Y-187892283*G75*G03X249605679Y-187504984I-50001J193649D01*G74*G01*X249605679Y-187392283*G75*G03X249605679Y-187004984I-50001J193649D01*G74*G01*X249605679Y-186892283*G75*G03X249605679Y-186504984I-50001J193649D01*G74*G01*X249605679Y-186392283*G75*G03X249605679Y-186004984I-50001J193649D01*G74*G01*X249605679Y-185892283*G75*G03X249605679Y-185504984I-50001J193649D01*G74*G01*X249605679Y-185392283*G75*G03X249605679Y-185004984I-50001J193649D01*G74*G01*X249605679Y-184892283*G75*G03X249605679Y-184504984I-50001J193649D01*G74*G01*X249605679Y-184392283*G75*G03X249605679Y-184004984I-50001J193649D01*G74*G01*X249605679Y-183892283*G75*G03X249605679Y-183504984I-50001J193649D01*G74*G01*X249605679Y-183392283*G75*G03X249605679Y-183004984I-50001J193649D01*G74*G01*X249605679Y-182892283*G75*G03X249605679Y-182504984I-50001J193649D01*G74*G01*X249605679Y-182392283*G75*G03X249605679Y-182004984I-50001J193649D01*G74*G01*X249605679Y-181892283*G75*G03X249605679Y-181504984I-50001J193649D01*G74*G01*X249605679Y-181392283*G75*G03X249605679Y-181004984I-50001J193649D01*G74*G01*X249605679Y-180892283*G75*G03X249605679Y-180504984I-50001J193649D01*G74*G01*X249605679Y-180392283*G75*G03X249605679Y-180004984I-50001J193649D01*G74*G01*X249605679Y-179892283*G75*G03X249605679Y-179504984I-50001J193649D01*G74*G01*X249605679Y-179392283*G75*G03X249605679Y-179004984I-50001J193649D01*G74*G01*X249605679Y-178892283*G75*G03X249605679Y-178504984I-50001J193649D01*G74*G01*X249605679Y-178392283*G75*G03X249605679Y-178004984I-50001J193649D01*G74*G01*X249605679Y-177892283*G75*G03X249605679Y-177504984I-50001J193649D01*G74*G01*X249605679Y-177392283*G75*G03X249605679Y-177004984I-50001J193649D01*G74*G01*X249605679Y-176892283*G75*G03X249605679Y-176504984I-50001J193649D01*G74*G01*X249605679Y-176392283*G75*G03X249605679Y-176004984I-50001J193649D01*G74*G01*X249605679Y-175892283*G75*G03X249605679Y-175504984I-50001J193649D01*G74*G01*X249605679Y-175392283*G75*G03X249605679Y-175004984I-50001J193649D01*G74*G01*X249605679Y-174892283*G75*G03X249605679Y-174504984I-50001J193649D01*G74*G01*X249605679Y-174392283*G75*G03X249605679Y-174004984I-50001J193649D01*G74*G01*X249605679Y-173892283*G75*G03X249605679Y-173504984I-50001J193649D01*G74*G01*X249605679Y-173392283*G75*G03X249605679Y-173004984I-50001J193649D01*G74*G01*X249605679Y-172892283*G75*G03X249605679Y-172504984I-50001J193649D01*G74*G01*X249605679Y-172392283*G75*G03X249605679Y-172004984I-50001J193649D01*G74*G01*X249605679Y-171892283*G75*G03X249605679Y-171504984I-50001J193649D01*G74*G01*X249605679Y-171392283*G75*G03X249605679Y-171004984I-50001J193649D01*G74*G01*X249605679Y-170892283*G75*G03X249605679Y-170504984I-50001J193649D01*G74*G01*X249605679Y-170392283*G75*G03X249605679Y-170004984I-50001J193649D01*G74*G01*X249605679Y-169892283*G75*G03X249605679Y-169504984I-50001J193649D01*G74*G01*X249605679Y-169392283*G75*G03X249605679Y-169004984I-50001J193649D01*G74*G01*X249605679Y-168892283*G75*G03X249605679Y-168504984I-50001J193649D01*G74*G01*X249605679Y-168392283*G75*G03X249605679Y-168004984I-50001J193649D01*G74*G01*X249605679Y-167892283*G75*G03X249605679Y-167504984I-50001J193649D01*G74*G01*X249605679Y-167392283*G75*G03X249605679Y-167004984I-50001J193649D01*G74*G01*X249605679Y-166892283*G75*G03X249605679Y-166504984I-50001J193649D01*G74*G01*X249605679Y-166392283*G75*G03X249605679Y-166004984I-50001J193649D01*G74*G01*X249605679Y-165892283*G75*G03X249605679Y-165504984I-50001J193649D01*G74*G01*X249605679Y-165392283*G75*G03X249605679Y-165004984I-50001J193649D01*G74*G01*X249605679Y-164892283*G75*G03X249605679Y-164504984I-50001J193649D01*G74*G01*X249605679Y-164392283*G75*G03X249605679Y-164004984I-50001J193649D01*G74*G01*X249605679Y-163892283*G75*G03X249605679Y-163504984I-50001J193649D01*G74*G01*X249605679Y-163392283*G75*G03X249605679Y-163004984I-50001J193649D01*G74*G01*X249605679Y-162892283*G75*G03X249605679Y-162504984I-50001J193649D01*G74*G01*X249605679Y-162392283*G75*G03X249605679Y-162004984I-50001J193649D01*G74*G01*X249605679Y-161892283*G75*G03X249605679Y-161504984I-50001J193649D01*G74*G01*X249605679Y-161392283*G75*G03X249605679Y-161004984I-50001J193649D01*G74*G01*X249605679Y-160892283*G75*G03X249605679Y-160504984I-50001J193649D01*G74*G01*X249605679Y-160392283*G75*G03X249605679Y-160004984I-50001J193649D01*G74*G01*X249605679Y-159892283*G75*G03X249605679Y-159504984I-50001J193649D01*G74*G01*X249605679Y-159392283*G75*G03X249605679Y-159004984I-50001J193649D01*G74*G01*X249605679Y-158892283*G75*G03X249605679Y-158504984I-50001J193649D01*G74*G01*X249605679Y-158392283*G75*G03X249605679Y-158004984I-50001J193649D01*G74*G01*X249605679Y-157892283*G75*G03X249605679Y-157504984I-50001J193649D01*G74*G01*X249605679Y-157392283*G75*G03X249605679Y-157004984I-50001J193649D01*G74*G01*X249605679Y-156892283*G75*G03X249605679Y-156504984I-50001J193649D01*G74*G01*X249605679Y-156392283*G75*G03X249605679Y-156004984I-50001J193649D01*G74*G01*X249605679Y-155892283*G75*G03X249605679Y-155504984I-50001J193649D01*G74*G01*X249605679Y-155392283*G75*G03X249605679Y-155004984I-50001J193649D01*G74*G01*X249605679Y-154892283*G75*G03X249605679Y-154504984I-50001J193649D01*G74*G01*X249605679Y-154392283*G75*G03X249605679Y-154004984I-50001J193649D01*G74*G01*X249605679Y-153892283*G75*G03X249605679Y-153504984I-50001J193649D01*G74*G01*X249605679Y-153392283*G75*G03X249605679Y-153004984I-50001J193649D01*G74*G01*X249605679Y-152892283*G75*G03X249605679Y-152504984I-50001J193649D01*G74*G01*X249605679Y-152392283*G75*G03X249605679Y-152004984I-50001J193649D01*G74*G01*X249605679Y-151892283*G75*G03X249605679Y-151504984I-50001J193649D01*G74*G01*X249605679Y-151392283*G75*G03X249605679Y-151004984I-50001J193649D01*G74*G01*X249605679Y-150892283*G75*G03X249605679Y-150504984I-50001J193649D01*G74*G01*X249605679Y-150392283*G75*G03X249605679Y-150004984I-50001J193649D01*G74*G01*X249605679Y-149892283*G75*G03X249605679Y-149504984I-50001J193649D01*G74*G01*X249605679Y-149392283*G75*G03X249605679Y-149004984I-50001J193649D01*G74*G01*X249605679Y-148892283*G75*G03X249605679Y-148504984I-50001J193649D01*G74*G01*X249605679Y-148392283*G75*G03X249605679Y-148004984I-50001J193649D01*G74*G01*X249605679Y-147892283*G75*G03X249605679Y-147504984I-50001J193649D01*G74*G01*X249605679Y-147392283*G75*G03X249605679Y-147004984I-50001J193649D01*G74*G01*X249605679Y-146892283*G75*G03X249605679Y-146504984I-50001J193649D01*G74*G01*X249605679Y-146392283*G75*G03X249605679Y-146004984I-50001J193649D01*G74*G01*X249605679Y-145892283*G75*G03X249605679Y-145504984I-50001J193649D01*G74*G01*X249605679Y-145392283*G75*G03X249605679Y-145004984I-50001J193649D01*G74*G01*X249605679Y-144892283*G75*G03X249605679Y-144504984I-50001J193649D01*G74*G01*X249605679Y-144392283*G75*G03X249605679Y-144004984I-50001J193649D01*G74*G01*X249605679Y-143892283*G75*G03X249605679Y-143504984I-50001J193649D01*G74*G01*X249605679Y-143392283*G75*G03X249605679Y-143004984I-50001J193649D01*G74*G01*X249605679Y-142892283*G75*G03X249605679Y-142504984I-50001J193649D01*G74*G01*X249605679Y-142392283*G75*G03X249605679Y-142004984I-50001J193649D01*G74*G01*X249605679Y-141892283*G75*G03X249605679Y-141504984I-50001J193649D01*G74*G01*X249605679Y-141392283*G75*G03X249605679Y-141004984I-50001J193649D01*G74*G01*X249605679Y-140892283*G75*G03X249605679Y-140504984I-50001J193649D01*G74*G01*X249605679Y-140392283*G75*G03X249605679Y-140004984I-50001J193649D01*G74*G01*X249605679Y-139892283*G75*G03X249605679Y-139504984I-50001J193649D01*G74*G01*X249605679Y-139392283*G75*G03X249605679Y-139004984I-50001J193649D01*G74*G01*X249605679Y-138892283*G75*G03X249605679Y-138504984I-50001J193649D01*G74*G01*X249605679Y-138392283*G75*G03X249605679Y-138004984I-50001J193649D01*G74*G01*X249605679Y-137892283*G75*G03X249605679Y-137504984I-50001J193649D01*G74*G01*X249605679Y-137392283*G75*G03X249605679Y-137004984I-50001J193649D01*G74*G01*X249605679Y-136892283*G75*G03X249605679Y-136504984I-50001J193649D01*G74*G01*X249605679Y-136392283*G75*G03X249605679Y-136004984I-50001J193649D01*G74*G01*X249605679Y-135892283*G75*G03X249605679Y-135504984I-50001J193649D01*G74*G01*X249605679Y-135392283*G75*G03X249605679Y-135004984I-50001J193649D01*G74*G01*X249605679Y-134892283*G75*G03X249605679Y-134504984I-50001J193649D01*G74*G01*X249605679Y-134392283*G75*G03X249605679Y-134004984I-50001J193649D01*G74*G01*X249605679Y-133892283*G75*G03X249605679Y-133504984I-50001J193649D01*G74*G01*X249605679Y-133392283*G75*G03X249605679Y-133004984I-50001J193649D01*G74*G01*X249605679Y-132892283*G75*G03X249605679Y-132504984I-50001J193649D01*G74*G01*X249605679Y-132392283*G75*G03X249605679Y-132004984I-50001J193649D01*G74*G01*X249605679Y-131892283*G75*G03X249605679Y-131504984I-50001J193649D01*G74*G01*X249605679Y-131392283*G75*G03X249605679Y-131004984I-50001J193649D01*G74*G01*X249605679Y-130892283*G75*G03X249605679Y-130504984I-50001J193649D01*G74*G01*X249605679Y-130392283*G75*G03X249605679Y-130004984I-50001J193649D01*G74*G01*X249605679Y-129892283*G75*G03X249605679Y-129504984I-50001J193649D01*G74*G01*X249605679Y-129392283*G75*G03X249605679Y-129004984I-50001J193649D01*G74*G01*X249605679Y-128892283*G75*G03X249605679Y-128504984I-50001J193649D01*G74*G01*X249605679Y-128392283*G75*G03X249605679Y-128004984I-50001J193649D01*G74*G01*X249605679Y-127892283*G75*G03X249605679Y-127504984I-50001J193649D01*G74*G01*X249605679Y-127392283*G75*G03X249605679Y-127004984I-50001J193649D01*G74*G01*X249605679Y-126892283*G75*G03X249605679Y-126504984I-50001J193649D01*G74*G01*X249605679Y-126392283*G75*G03X249605679Y-126004984I-50001J193649D01*G74*G01*X249605679Y-125892283*G75*G03X249605679Y-125504984I-50001J193649D01*G74*G01*X249605679Y-125392283*G75*G03X249605679Y-125004984I-50001J193649D01*G74*G01*X249605679Y-124892283*G75*G03X249605679Y-124504984I-50001J193649D01*G74*G01*X249605679Y-124392283*G75*G03X249605679Y-124004984I-50001J193649D01*G74*G01*X249605679Y-123892283*G75*G03X249605679Y-123504984I-50001J193649D01*G74*G01*X249605679Y-123392283*G75*G03X249605679Y-123004984I-50001J193649D01*G74*G01*X249605679Y-122892283*G75*G03X249605679Y-122504984I-50001J193649D01*G74*G01*X249605679Y-122392283*G75*G03X249605679Y-122004984I-50001J193649D01*G74*G01*X249605679Y-121892283*G75*G03X249605679Y-121504984I-50001J193649D01*G74*G01*X249605679Y-121392283*G75*G03X249605679Y-121004984I-50001J193649D01*G74*G01*X249605679Y-120892283*G75*G03X249605679Y-120504984I-50001J193649D01*G74*G01*X249605679Y-120392283*G75*G03X249605679Y-120004984I-50001J193649D01*G74*G01*X249605679Y-119892283*G75*G03X249605679Y-119504984I-50001J193649D01*G74*G01*X249605679Y-119392283*G75*G03X249605679Y-119004984I-50001J193649D01*G74*G01*X249605679Y-118892283*G75*G03X249605679Y-118504984I-50001J193649D01*G74*G01*X249605679Y-118392283*G75*G03X249605679Y-118004984I-50001J193649D01*G74*G01*X249605679Y-117892283*G75*G03X249605679Y-117504984I-50001J193649D01*G74*G01*X249605679Y-117392283*G75*G03X249605679Y-117004984I-50001J193649D01*G74*G01*X249605679Y-116892283*G75*G03X249605679Y-116504984I-50001J193649D01*G74*G01*X249605679Y-116392283*G75*G03X249605679Y-116004984I-50001J193649D01*G74*G01*X249605679Y-115892283*G75*G03X249605679Y-115504984I-50001J193649D01*G74*G01*X249605679Y-115392283*G75*G03X249605679Y-115004984I-50001J193649D01*G74*G01*X249605679Y-114892283*G75*G03X249605679Y-114504984I-50001J193649D01*G74*G01*X249605679Y-114392283*G75*G03X249605679Y-114004984I-50001J193649D01*G74*G01*X249605679Y-113892283*G75*G03X249605679Y-113504984I-50001J193649D01*G74*G01*X249605679Y-113392283*G75*G03X249605679Y-113004984I-50001J193649D01*G74*G01*X249605679Y-112892283*G75*G03X249605679Y-112504984I-50001J193649D01*G74*G01*X249605679Y-112392283*G75*G03X249605679Y-112004984I-50001J193649D01*G74*G01*X249605679Y-111892283*G75*G03X249605679Y-111504984I-50001J193649D01*G74*G01*X249605679Y-111392283*G75*G03X249605679Y-111004984I-50001J193649D01*G74*G01*X249605679Y-110892283*G75*G03X249605679Y-110504984I-50001J193649D01*G74*G01*X249605679Y-110392283*G75*G03X249605679Y-110004984I-50001J193649D01*G74*G01*X249605679Y-109892283*G75*G03X249605679Y-109504984I-50001J193649D01*G74*G01*X249605679Y-109392283*G75*G03X249605679Y-109004984I-50001J193649D01*G74*G01*X249605679Y-108892283*G75*G03X249605679Y-108504984I-50001J193649D01*G74*G01*X249605679Y-108392283*G75*G03X249605679Y-108004984I-50001J193649D01*G74*G01*X249605679Y-107892283*G75*G03X249605679Y-107504984I-50001J193649D01*G74*G01*X249605679Y-107392283*G75*G03X249605679Y-107004984I-50001J193649D01*G74*G01*X249605679Y-106892283*G75*G03X249605679Y-106504984I-50001J193649D01*G74*G01*X249605679Y-106392283*G75*G03X249605679Y-106004984I-50001J193649D01*G74*G01*X249605679Y-105892283*G75*G03X249605679Y-105504984I-50001J193649D01*G74*G01*X249605679Y-105392283*G75*G03X249605679Y-105004984I-50001J193649D01*G74*G01*X249605679Y-104892283*G75*G03X249605679Y-104504984I-50001J193649D01*G74*G01*X249605679Y-104392283*G75*G03X249605679Y-104004984I-50001J193649D01*G74*G01*X249605679Y-103892283*G75*G03X249605679Y-103504984I-50001J193649D01*G74*G01*X249605679Y-103392283*G75*G03X249605679Y-103004984I-50001J193649D01*G74*G01*X249605679Y-102892283*G75*G03X249605679Y-102504984I-50001J193649D01*G74*G01*X249605679Y-102392283*G75*G03X249605679Y-102004984I-50001J193649D01*G74*G01*X249605679Y-101892283*G75*G03X249605679Y-101504984I-50001J193649D01*G74*G01*X249605679Y-101392283*G75*G03X249605679Y-101004984I-50001J193649D01*G74*G01*X249605679Y-100892283*G75*G03X249605679Y-100504984I-50001J193649D01*G74*G01*X249605679Y-100392283*G75*G03X249605679Y-100004984I-50001J193649D01*G74*G01*X249605679Y-99892283*G75*G03X249605679Y-99504984I-50001J193649D01*G74*G01*X249605679Y-99392283*G75*G03X249605679Y-99004984I-50001J193649D01*G74*G01*X249605679Y-98892283*G75*G03X249605679Y-98504984I-50001J193649D01*G74*G01*X249605679Y-98392283*G75*G03X249605679Y-98004984I-50001J193649D01*G74*G01*X249605679Y-97892283*G75*G03X249605679Y-97504984I-50001J193649D01*G74*G01*X249605679Y-97392283*G75*G03X249605679Y-97004984I-50001J193649D01*G74*G01*X249605679Y-96892283*G75*G03X249605679Y-96504984I-50001J193649D01*G74*G01*X249605679Y-96392283*G75*G03X249605679Y-96004984I-50001J193649D01*G74*G01*X249605679Y-95892283*G75*G03X249605679Y-95504984I-50001J193649D01*G74*G01*X249605679Y-95392283*G75*G03X249605679Y-95004984I-50001J193649D01*G74*G01*X249605679Y-94892283*G75*G03X249605679Y-94504984I-50001J193649D01*G74*G01*X249605679Y-94392283*G75*G03X249605679Y-94004984I-50001J193649D01*G74*G01*X249605679Y-93892283*G75*G03X249605679Y-93504984I-50001J193649D01*G74*G01*X249605679Y-93392283*G75*G03X249605679Y-93004984I-50001J193649D01*G74*G01*X249605679Y-92892283*G75*G03X249605679Y-92504984I-50001J193649D01*G74*G01*X249605679Y-92392283*G75*G03X249605679Y-92004984I-50001J193649D01*G74*G01*X249605679Y-91892283*G75*G03X249605679Y-91504984I-50001J193649D01*G74*G01*X249605679Y-91392283*G75*G03X249605679Y-91004984I-50001J193649D01*G74*G01*X249605679Y-90892283*G75*G03X249605679Y-90504984I-50001J193649D01*G74*G01*X249605679Y-90392283*G75*G03X249605679Y-90004984I-50001J193649D01*G74*G01*X249605679Y-89892283*G75*G03X249605679Y-89504984I-50001J193649D01*G74*G01*X249605679Y-89392283*G75*G03X249605679Y-89004984I-50001J193649D01*G74*G01*X249605679Y-88892283*G75*G03X249605679Y-88504984I-50001J193649D01*G74*G01*X249605679Y-88392283*G75*G03X249605679Y-88004984I-50001J193649D01*G74*G01*X249605679Y-87892283*G75*G03X249605679Y-87504984I-50001J193649D01*G74*G01*X249605679Y-87392283*G75*G03X249605679Y-87004984I-50001J193649D01*G74*G01*X249605679Y-86892283*G75*G03X249605679Y-86504984I-50001J193649D01*G74*G01*X249605679Y-86392283*G75*G03X249605679Y-86004984I-50001J193649D01*G74*G01*X249605679Y-85892283*G75*G03X249605679Y-85504984I-50001J193649D01*G74*G01*X249605679Y-85392283*G75*G03X249605679Y-85004984I-50001J193649D01*G74*G01*X249605679Y-84892283*G75*G03X249605679Y-84504984I-50001J193649D01*G74*G01*X249605679Y-84392283*G75*G03X249605679Y-84004984I-50001J193649D01*G74*G01*X249605679Y-83892283*G75*G03X249605679Y-83504984I-50001J193649D01*G74*G01*X249605679Y-83392283*G75*G03X249605679Y-83004984I-50001J193649D01*G74*G01*X249605679Y-82892283*G75*G03X249605679Y-82504984I-50001J193649D01*G74*G01*X249605679Y-82392283*G75*G03X249605679Y-82004984I-50001J193649D01*G74*G01*X249605679Y-81892283*G75*G03X249605679Y-81504984I-50001J193649D01*G74*G01*X249605679Y-81392283*G75*G03X249605679Y-81004984I-50001J193649D01*G74*G01*X249605679Y-80892283*G75*G03X249605679Y-80504984I-50001J193649D01*G74*G01*X249605679Y-80392283*G75*G03X249605679Y-80004984I-50001J193649D01*G74*G01*X249605679Y-79892283*G75*G03X249605679Y-79504984I-50001J193649D01*G74*G01*X249605679Y-79392283*G75*G03X249605679Y-79004984I-50001J193649D01*G74*G01*X249605679Y-78892283*G75*G03X249605679Y-78504984I-50001J193649D01*G74*G01*X249605679Y-78392283*G75*G03X249605679Y-78004984I-50001J193649D01*G74*G01*X249605679Y-77892283*G75*G03X249605679Y-77504984I-50001J193649D01*G74*G01*X249605679Y-77392283*G75*G03X249605679Y-77004984I-50001J193649D01*G74*G01*X249605679Y-76892283*G75*G03X249605679Y-76504984I-50001J193649D01*G74*G01*X249605679Y-76392283*G75*G03X249605679Y-76004984I-50001J193649D01*G74*G01*X249605679Y-75892283*G75*G03X249605679Y-75504984I-50001J193649D01*G74*G01*X249605679Y-75392283*G75*G03X249605679Y-75004984I-50001J193649D01*G74*G01*X249605679Y-74892283*G75*G03X249605679Y-74504984I-50001J193649D01*G74*G01*X249605679Y-74392283*G75*G03X249605679Y-74004984I-50001J193649D01*G74*G01*X249605679Y-73892283*G75*G03X249605679Y-73504984I-50001J193649D01*G74*G01*X249605679Y-73392283*G75*G03X249605679Y-73004984I-50001J193649D01*G74*G01*X249605679Y-72892283*G75*G03X249605679Y-72504984I-50001J193649D01*G74*G01*X249605679Y-72392283*G75*G03X249605679Y-72004984I-50001J193649D01*G74*G01*X249605679Y-71892283*G75*G03X249605679Y-71504984I-50001J193649D01*G74*G01*X249605679Y-71392283*G75*G03X249605679Y-71004984I-50001J193649D01*G74*G01*X249605679Y-70504984*X249805679Y-70004984*X249930679Y-70004984*X249930679Y-63967171*X249930679Y-63467171*X185719664Y-63467171*X180298104Y-63467171*X179298104Y-63467171*X179298104Y-62467171*X179298104Y-57312378*X179298104Y-54460916*X189930679Y-54460916*X209930679Y-54460916*X209930680Y-53960916*X209931088Y84379188*X175930679Y84377392*G75*G02X175430679Y84896501I34164J533262D01*G74*G01*X175935858Y85257851*X176365606Y86054349*X176507887Y86375665*X176559213Y86540091*X176695979Y86978233*X176755168Y87202752*X176909160Y88002752*X176969948Y88362752*X177056549Y89362742*X177051600Y90682742*X176957231Y91682756*X176912006Y92083520*X176490679Y93688959*X176180648Y94276445*X176180883Y101120959*G75*G03X182414198Y108016059I-1250000J7395100D01*G74*G01*G75*G03X173680883Y101120959I-7483318J499945D01*G74*G01*X173680883Y95205959*X173680646Y94276445*X173370646Y93689016*X172949318Y92083577*X172904094Y91682813*X172809725Y90682799*X172804775Y89362799*X172891377Y88362809*X172952165Y88002809*X173106157Y87202809*X173165346Y86978290*X173302112Y86540148*X173353437Y86375722*X173495718Y86054406*X173925467Y85251288*X174430646Y84896558*G75*G02X173977265Y84379188I-538849J14861D01*G74*G01*X139930679Y84379188*X139930679Y-53960916*X139930679Y-54460916*X159930679Y-54460916*X170563253Y-54460916*X170563253Y-57312378*X170563253Y-62467171*X170563253Y-63467171*X169563253Y-63467171*X164141694Y-63467171*X99930679Y-63467171*X99930679Y-63967171*X99930679Y-68004984*X99930679Y-70004984*X100055679Y-70004984*X100255679Y-70504984*X100255679Y-71004984*G75*G03X100255679Y-71392283I50002J-193649D01*G74*G01*X100255679Y-71504984*G75*G03X100255679Y-71892283I50002J-193649D01*G74*G01*X100255679Y-72004984*G75*G03X100255679Y-72392283I50002J-193649D01*G74*G01*X100255679Y-72504984*G75*G03X100255679Y-72892283I50002J-193649D01*G74*G01*X100255679Y-73004984*G75*G03X100255679Y-73392283I50002J-193649D01*G74*G01*X100255679Y-73504984*G75*G03X100255679Y-73892283I50002J-193649D01*G74*G01*X100255679Y-74004984*G75*G03X100255679Y-74392283I50002J-193649D01*G74*G01*X100255679Y-74504984*G75*G03X100255679Y-74892283I50002J-193649D01*G74*G01*X100255679Y-75004984*G75*G03X100255679Y-75392283I50002J-193649D01*G74*G01*X100255679Y-75504984*G75*G03X100255679Y-75892283I50002J-193649D01*G74*G01*X100255679Y-76004984*G75*G03X100255679Y-76392283I50002J-193649D01*G74*G01*X100255679Y-76504984*G75*G03X100255679Y-76892283I50002J-193649D01*G74*G01*X100255679Y-77004984*G75*G03X100255679Y-77392283I50002J-193649D01*G74*G01*X100255679Y-77504984*G75*G03X100255679Y-77892283I50002J-193649D01*G74*G01*X100255679Y-78004984*G75*G03X100255679Y-78392283I50002J-193649D01*G74*G01*X100255679Y-78504984*G75*G03X100255679Y-78892283I50002J-193649D01*G74*G01*X100255679Y-79004984*G75*G03X100255679Y-79392283I50002J-193649D01*G74*G01*X100255679Y-79504984*G75*G03X100255679Y-79892283I50002J-193649D01*G74*G01*X100255679Y-80004984*G75*G03X100255679Y-80392283I50002J-193649D01*G74*G01*X100255679Y-80504984*G75*G03X100255679Y-80892283I50002J-193649D01*G74*G01*X100255679Y-81004984*G75*G03X100255679Y-81392283I50002J-193649D01*G74*G01*X100255679Y-81504984*G75*G03X100255679Y-81892283I50002J-193649D01*G74*G01*X100255679Y-82004984*G75*G03X100255679Y-82392283I50002J-193649D01*G74*G01*X100255679Y-82504984*G75*G03X100255679Y-82892283I50002J-193649D01*G74*G01*X100255679Y-83004984*G75*G03X100255679Y-83392283I50002J-193649D01*G74*G01*X100255679Y-83504984*G75*G03X100255679Y-83892283I50002J-193649D01*G74*G01*X100255679Y-84004984*G75*G03X100255679Y-84392283I50002J-193649D01*G74*G01*X100255679Y-84504984*G75*G03X100255679Y-84892283I50002J-193649D01*G74*G01*X100255679Y-85004984*G75*G03X100255679Y-85392283I50002J-193649D01*G74*G01*X100255679Y-85504984*G75*G03X100255679Y-85892283I50002J-193649D01*G74*G01*X100255679Y-86004984*G75*G03X100255679Y-86392283I50002J-193649D01*G74*G01*X100255679Y-86504984*G75*G03X100255679Y-86892283I50002J-193649D01*G74*G01*X100255679Y-87004984*G75*G03X100255679Y-87392283I50002J-193649D01*G74*G01*X100255679Y-87504984*G75*G03X100255679Y-87892283I50002J-193649D01*G74*G01*X100255679Y-88004984*G75*G03X100255679Y-88392283I50002J-193649D01*G74*G01*X100255679Y-88504984*G75*G03X100255679Y-88892283I50002J-193649D01*G74*G01*X100255679Y-89004984*G75*G03X100255679Y-89392283I50002J-193649D01*G74*G01*X100255679Y-89504984*G75*G03X100255679Y-89892283I50002J-193649D01*G74*G01*X100255679Y-90004984*G75*G03X100255679Y-90392283I50002J-193649D01*G74*G01*X100255679Y-90504984*G75*G03X100255679Y-90892283I50002J-193649D01*G74*G01*X100255679Y-91004984*G75*G03X100255679Y-91392283I50002J-193649D01*G74*G01*X100255679Y-91504984*G75*G03X100255679Y-91892283I50002J-193649D01*G74*G01*X100255679Y-92004984*G75*G03X100255679Y-92392283I50002J-193649D01*G74*G01*X100255679Y-92504984*G75*G03X100255679Y-92892283I50002J-193649D01*G74*G01*X100255679Y-93004984*G75*G03X100255679Y-93392283I50002J-193649D01*G74*G01*X100255679Y-93504984*G75*G03X100255679Y-93892283I50002J-193649D01*G74*G01*X100255679Y-94004984*G75*G03X100255679Y-94392283I50002J-193649D01*G74*G01*X100255679Y-94504984*G75*G03X100255679Y-94892283I50002J-193649D01*G74*G01*X100255679Y-95004984*G75*G03X100255679Y-95392283I50002J-193649D01*G74*G01*X100255679Y-95504984*G75*G03X100255679Y-95892283I50002J-193649D01*G74*G01*X100255679Y-96004984*G75*G03X100255679Y-96392283I50002J-193649D01*G74*G01*X100255679Y-96504984*G75*G03X100255679Y-96892283I50002J-193649D01*G74*G01*X100255679Y-97004984*G75*G03X100255679Y-97392283I50002J-193649D01*G74*G01*X100255679Y-97504984*G75*G03X100255679Y-97892283I50002J-193649D01*G74*G01*X100255679Y-98004984*G75*G03X100255679Y-98392283I50002J-193649D01*G74*G01*X100255679Y-98504984*G75*G03X100255679Y-98892283I50002J-193649D01*G74*G01*X100255679Y-99004984*G75*G03X100255679Y-99392283I50002J-193649D01*G74*G01*X100255679Y-99504984*G75*G03X100255679Y-99892283I50002J-193649D01*G74*G01*X100255679Y-100004984*G75*G03X100255679Y-100392283I50002J-193649D01*G74*G01*X100255679Y-100504984*G75*G03X100255679Y-100892283I50002J-193649D01*G74*G01*X100255679Y-101004984*G75*G03X100255679Y-101392283I50002J-193649D01*G74*G01*X100255679Y-101504984*G75*G03X100255679Y-101892283I50002J-193649D01*G74*G01*X100255679Y-102004984*G75*G03X100255679Y-102392283I50002J-193649D01*G74*G01*X100255679Y-102504984*G75*G03X100255679Y-102892283I50002J-193649D01*G74*G01*X100255679Y-103004984*G75*G03X100255679Y-103392283I50002J-193649D01*G74*G01*X100255679Y-103504984*G75*G03X100255679Y-103892283I50002J-193649D01*G74*G01*X100255679Y-104004984*G75*G03X100255679Y-104392283I50002J-193649D01*G74*G01*X100255679Y-104504984*G75*G03X100255679Y-104892283I50002J-193649D01*G74*G01*X100255679Y-105004984*G75*G03X100255679Y-105392283I50002J-193649D01*G74*G01*X100255679Y-105504984*G75*G03X100255679Y-105892283I50002J-193649D01*G74*G01*X100255679Y-106004984*G75*G03X100255679Y-106392283I50002J-193649D01*G74*G01*X100255679Y-106504984*G75*G03X100255679Y-106892283I50002J-193649D01*G74*G01*X100255679Y-107004984*G75*G03X100255679Y-107392283I50002J-193649D01*G74*G01*X100255679Y-107504984*G75*G03X100255679Y-107892283I50002J-193649D01*G74*G01*X100255679Y-108004984*G75*G03X100255679Y-108392283I50002J-193649D01*G74*G01*X100255679Y-108504984*G75*G03X100255679Y-108892283I50002J-193649D01*G74*G01*X100255679Y-109004984*G75*G03X100255679Y-109392283I50002J-193649D01*G74*G01*X100255679Y-109504984*G75*G03X100255679Y-109892283I50002J-193649D01*G74*G01*X100255679Y-110004984*G75*G03X100255679Y-110392283I50002J-193649D01*G74*G01*X100255679Y-110504984*G75*G03X100255679Y-110892283I50002J-193649D01*G74*G01*X100255679Y-111004984*G75*G03X100255679Y-111392283I50002J-193649D01*G74*G01*X100255679Y-111504984*G75*G03X100255679Y-111892283I50002J-193649D01*G74*G01*X100255679Y-112004984*G75*G03X100255679Y-112392283I50002J-193649D01*G74*G01*X100255679Y-112504984*G75*G03X100255679Y-112892283I50002J-193649D01*G74*G01*X100255679Y-113004984*G75*G03X100255679Y-113392283I50002J-193649D01*G74*G01*X100255679Y-113504984*G75*G03X100255679Y-113892283I50002J-193649D01*G74*G01*X100255679Y-114004984*G75*G03X100255679Y-114392283I50002J-193649D01*G74*G01*X100255679Y-114504984*G75*G03X100255679Y-114892283I50002J-193649D01*G74*G01*X100255679Y-115004984*G75*G03X100255679Y-115392283I50002J-193649D01*G74*G01*X100255679Y-115504984*G75*G03X100255679Y-115892283I50002J-193649D01*G74*G01*X100255679Y-116004984*G75*G03X100255679Y-116392283I50002J-193649D01*G74*G01*X100255679Y-116504984*G75*G03X100255679Y-116892283I50002J-193649D01*G74*G01*X100255679Y-117004984*G75*G03X100255679Y-117392283I50002J-193649D01*G74*G01*X100255679Y-117504984*G75*G03X100255679Y-117892283I50002J-193649D01*G74*G01*X100255679Y-118004984*G75*G03X100255679Y-118392283I50002J-193649D01*G74*G01*X100255679Y-118504984*G75*G03X100255679Y-118892283I50002J-193649D01*G74*G01*X100255679Y-119004984*G75*G03X100255679Y-119392283I50002J-193649D01*G74*G01*X100255679Y-119504984*G75*G03X100255679Y-119892283I50002J-193649D01*G74*G01*X100255679Y-120004984*G75*G03X100255679Y-120392283I50002J-193649D01*G74*G01*X100255679Y-120504984*G75*G03X100255679Y-120892283I50002J-193649D01*G74*G01*X100255679Y-121004984*G75*G03X100255679Y-121392283I50002J-193649D01*G74*G01*X100255679Y-121504984*G75*G03X100255679Y-121892283I50002J-193649D01*G74*G01*X100255679Y-122004984*G75*G03X100255679Y-122392283I50002J-193649D01*G74*G01*X100255679Y-122504984*G75*G03X100255679Y-122892283I50002J-193649D01*G74*G01*X100255679Y-123004984*G75*G03X100255679Y-123392283I50002J-193649D01*G74*G01*X100255679Y-123504984*G75*G03X100255679Y-123892283I50002J-193649D01*G74*G01*X100255679Y-124004984*G75*G03X100255679Y-124392283I50002J-193649D01*G74*G01*X100255679Y-124504984*G75*G03X100255679Y-124892283I50002J-193649D01*G74*G01*X100255679Y-125004984*G75*G03X100255679Y-125392283I50002J-193649D01*G74*G01*X100255679Y-125504984*G75*G03X100255679Y-125892283I50002J-193649D01*G74*G01*X100255679Y-126004984*G75*G03X100255679Y-126392283I50002J-193649D01*G74*G01*X100255679Y-126504984*G75*G03X100255679Y-126892283I50002J-193649D01*G74*G01*X100255679Y-127004984*G75*G03X100255679Y-127392283I50002J-193649D01*G74*G01*X100255679Y-127504984*G75*G03X100255679Y-127892283I50002J-193649D01*G74*G01*X100255679Y-128004984*G75*G03X100255679Y-128392283I50002J-193649D01*G74*G01*X100255679Y-128504984*G75*G03X100255679Y-128892283I50002J-193649D01*G74*G01*X100255679Y-129004984*G75*G03X100255679Y-129392283I50002J-193649D01*G74*G01*X100255679Y-129504984*G75*G03X100255679Y-129892283I50002J-193649D01*G74*G01*X100255679Y-130004984*G75*G03X100255679Y-130392283I50002J-193649D01*G74*G01*X100255679Y-130504984*G75*G03X100255679Y-130892283I50002J-193649D01*G74*G01*X100255679Y-131004984*G75*G03X100255679Y-131392283I50002J-193649D01*G74*G01*X100255679Y-131504984*G75*G03X100255679Y-131892283I50002J-193649D01*G74*G01*X100255679Y-132004984*G75*G03X100255679Y-132392283I50002J-193649D01*G74*G01*X100255679Y-132504984*G75*G03X100255679Y-132892283I50002J-193649D01*G74*G01*X100255679Y-133004984*G75*G03X100255679Y-133392283I50002J-193649D01*G74*G01*X100255679Y-133504984*G75*G03X100255679Y-133892283I50002J-193649D01*G74*G01*X100255679Y-134004984*G75*G03X100255679Y-134392283I50002J-193649D01*G74*G01*X100255679Y-134504984*G75*G03X100255679Y-134892283I50002J-193649D01*G74*G01*X100255679Y-135004984*G75*G03X100255679Y-135392283I50002J-193649D01*G74*G01*X100255679Y-135504984*G75*G03X100255679Y-135892283I50002J-193649D01*G74*G01*X100255679Y-136004984*G75*G03X100255679Y-136392283I50002J-193649D01*G74*G01*X100255679Y-136504984*G75*G03X100255679Y-136892283I50002J-193649D01*G74*G01*X100255679Y-137004984*G75*G03X100255679Y-137392283I50002J-193649D01*G74*G01*X100255679Y-137504984*G75*G03X100255679Y-137892283I50002J-193649D01*G74*G01*X100255679Y-138004984*G75*G03X100255679Y-138392283I50002J-193649D01*G74*G01*X100255679Y-138504984*G75*G03X100255679Y-138892283I50002J-193649D01*G74*G01*X100255679Y-139004984*G75*G03X100255679Y-139392283I50002J-193649D01*G74*G01*X100255679Y-139504984*G75*G03X100255679Y-139892283I50002J-193649D01*G74*G01*X100255679Y-140004984*G75*G03X100255679Y-140392283I50002J-193649D01*G74*G01*X100255679Y-140504984*G75*G03X100255679Y-140892283I50002J-193649D01*G74*G01*X100255679Y-141004984*G75*G03X100255679Y-141392283I50002J-193649D01*G74*G01*X100255679Y-141504984*G75*G03X100255679Y-141892283I50002J-193649D01*G74*G01*X100255679Y-142004984*G75*G03X100255679Y-142392283I50002J-193649D01*G74*G01*X100255679Y-142504984*G75*G03X100255679Y-142892283I50002J-193649D01*G74*G01*X100255679Y-143004984*G75*G03X100255679Y-143392283I50002J-193649D01*G74*G01*X100255679Y-143504984*G75*G03X100255679Y-143892283I50002J-193649D01*G74*G01*X100255679Y-144004984*G75*G03X100255679Y-144392283I50002J-193649D01*G74*G01*X100255679Y-144504984*G75*G03X100255679Y-144892283I50002J-193649D01*G74*G01*X100255679Y-145004984*G75*G03X100255679Y-145392283I50002J-193649D01*G74*G01*X100255679Y-145504984*G75*G03X100255679Y-145892283I50002J-193649D01*G74*G01*X100255679Y-146004984*G75*G03X100255679Y-146392283I50002J-193649D01*G74*G01*X100255679Y-146504984*G75*G03X100255679Y-146892283I50002J-193649D01*G74*G01*X100255679Y-147004984*G75*G03X100255679Y-147392283I50002J-193649D01*G74*G01*X100255679Y-147504984*G75*G03X100255679Y-147892283I50002J-193649D01*G74*G01*X100255679Y-148004984*G75*G03X100255679Y-148392283I50002J-193649D01*G74*G01*X100255679Y-148504984*G75*G03X100255679Y-148892283I50002J-193649D01*G74*G01*X100255679Y-149004984*G75*G03X100255679Y-149392283I50002J-193649D01*G74*G01*X100255679Y-149504984*G75*G03X100255679Y-149892283I50002J-193649D01*G74*G01*X100255679Y-150004984*G75*G03X100255679Y-150392283I50002J-193649D01*G74*G01*X100255679Y-150504984*G75*G03X100255679Y-150892283I50002J-193649D01*G74*G01*X100255679Y-151004984*G75*G03X100255679Y-151392283I50002J-193649D01*G74*G01*X100255679Y-151504984*G75*G03X100255679Y-151892283I50002J-193649D01*G74*G01*X100255679Y-152004984*G75*G03X100255679Y-152392283I50002J-193649D01*G74*G01*X100255679Y-152504984*G75*G03X100255679Y-152892283I50002J-193649D01*G74*G01*X100255679Y-153004984*G75*G03X100255679Y-153392283I50002J-193649D01*G74*G01*X100255679Y-153504984*G75*G03X100255679Y-153892283I50002J-193649D01*G74*G01*X100255679Y-154004984*G75*G03X100255679Y-154392283I50002J-193649D01*G74*G01*X100255679Y-154504984*G75*G03X100255679Y-154892283I50002J-193649D01*G74*G01*X100255679Y-155004984*G75*G03X100255679Y-155392283I50002J-193649D01*G74*G01*X100255679Y-155504984*G75*G03X100255679Y-155892283I50002J-193649D01*G74*G01*X100255679Y-156004984*G75*G03X100255679Y-156392283I50002J-193649D01*G74*G01*X100255679Y-156504984*G75*G03X100255679Y-156892283I50002J-193649D01*G74*G01*X100255679Y-157004984*G75*G03X100255679Y-157392283I50002J-193649D01*G74*G01*X100255679Y-157504984*G75*G03X100255679Y-157892283I50002J-193649D01*G74*G01*X100255679Y-158004984*G75*G03X100255679Y-158392283I50002J-193649D01*G74*G01*X100255679Y-158504984*G75*G03X100255679Y-158892283I50002J-193649D01*G74*G01*X100255679Y-159004984*G75*G03X100255679Y-159392283I50002J-193649D01*G74*G01*X100255679Y-159504984*G75*G03X100255679Y-159892283I50002J-193649D01*G74*G01*X100255679Y-160004984*G75*G03X100255679Y-160392283I50002J-193649D01*G74*G01*X100255679Y-160504984*G75*G03X100255679Y-160892283I50002J-193649D01*G74*G01*X100255679Y-161004984*G75*G03X100255679Y-161392283I50002J-193649D01*G74*G01*X100255679Y-161504984*G75*G03X100255679Y-161892283I50002J-193649D01*G74*G01*X100255679Y-162004984*G75*G03X100255679Y-162392283I50002J-193649D01*G74*G01*X100255679Y-162504984*G75*G03X100255679Y-162892283I50002J-193649D01*G74*G01*X100255679Y-163004984*G75*G03X100255679Y-163392283I50002J-193649D01*G74*G01*X100255679Y-163504984*G75*G03X100255679Y-163892283I50002J-193649D01*G74*G01*X100255679Y-164004984*G75*G03X100255679Y-164392283I50002J-193649D01*G74*G01*X100255679Y-164504984*G75*G03X100255679Y-164892283I50002J-193649D01*G74*G01*X100255679Y-165004984*G75*G03X100255679Y-165392283I50002J-193649D01*G74*G01*X100255679Y-165504984*G75*G03X100255679Y-165892283I50002J-193649D01*G74*G01*X100255679Y-166004984*G75*G03X100255679Y-166392283I50002J-193649D01*G74*G01*X100255679Y-166504984*G75*G03X100255679Y-166892283I50002J-193649D01*G74*G01*X100255679Y-167004984*G75*G03X100255679Y-167392283I50002J-193649D01*G74*G01*X100255679Y-167504984*G75*G03X100255679Y-167892283I50002J-193649D01*G74*G01*X100255679Y-168004984*G75*G03X100255679Y-168392283I50002J-193649D01*G74*G01*X100255679Y-168504984*G75*G03X100255679Y-168892283I50002J-193649D01*G74*G01*X100255679Y-169004984*G75*G03X100255679Y-169392283I50002J-193649D01*G74*G01*X100255679Y-169504984*G75*G03X100255679Y-169892283I50002J-193649D01*G74*G01*X100255679Y-170004984*G75*G03X100255679Y-170392283I50002J-193649D01*G74*G01*X100255679Y-170504984*G75*G03X100255679Y-170892283I50002J-193649D01*G74*G01*X100255679Y-171004984*G75*G03X100255679Y-171392283I50002J-193649D01*G74*G01*X100255679Y-171504984*G75*G03X100255679Y-171892283I50002J-193649D01*G74*G01*X100255679Y-172004984*G75*G03X100255679Y-172392283I50002J-193649D01*G74*G01*X100255679Y-172504984*G75*G03X100255679Y-172892283I50002J-193649D01*G74*G01*X100255679Y-173004984*G75*G03X100255679Y-173392283I50002J-193649D01*G74*G01*X100255679Y-173504984*G75*G03X100255679Y-173892283I50002J-193649D01*G74*G01*X100255679Y-174004984*G75*G03X100255679Y-174392283I50002J-193649D01*G74*G01*X100255679Y-174504984*G75*G03X100255679Y-174892283I50002J-193649D01*G74*G01*X100255679Y-175004984*G75*G03X100255679Y-175392283I50002J-193649D01*G74*G01*X100255679Y-175504984*G75*G03X100255679Y-175892283I50002J-193649D01*G74*G01*X100255679Y-176004984*G75*G03X100255679Y-176392283I50002J-193649D01*G74*G01*X100255679Y-176504984*G75*G03X100255679Y-176892283I50002J-193649D01*G74*G01*X100255679Y-177004984*G75*G03X100255679Y-177392283I50002J-193649D01*G74*G01*X100255679Y-177504984*G75*G03X100255679Y-177892283I50002J-193649D01*G74*G01*X100255679Y-178004984*G75*G03X100255679Y-178392283I50002J-193649D01*G74*G01*X100255679Y-178504984*G75*G03X100255679Y-178892283I50002J-193649D01*G74*G01*X100255679Y-179004984*G75*G03X100255679Y-179392283I50002J-193649D01*G74*G01*X100255679Y-179504984*G75*G03X100255679Y-179892283I50002J-193649D01*G74*G01*X100255679Y-180004984*G75*G03X100255679Y-180392283I50002J-193649D01*G74*G01*X100255679Y-180504984*G75*G03X100255679Y-180892283I50002J-193649D01*G74*G01*X100255679Y-181004984*G75*G03X100255679Y-181392283I50002J-193649D01*G74*G01*X100255679Y-181504984*G75*G03X100255679Y-181892283I50002J-193649D01*G74*G01*X100255679Y-182004984*G75*G03X100255679Y-182392283I50002J-193649D01*G74*G01*X100255679Y-182504984*G75*G03X100255679Y-182892283I50002J-193649D01*G74*G01*X100255679Y-183004984*G75*G03X100255679Y-183392283I50002J-193649D01*G74*G01*X100255679Y-183504984*G75*G03X100255679Y-183892283I50002J-193649D01*G74*G01*X100255679Y-184004984*G75*G03X100255679Y-184392283I50002J-193649D01*G74*G01*X100255679Y-184504984*G75*G03X100255679Y-184892283I50002J-193649D01*G74*G01*X100255679Y-185004984*G75*G03X100255679Y-185392283I50002J-193649D01*G74*G01*X100255679Y-185504984*G75*G03X100255679Y-185892283I50002J-193649D01*G74*G01*X100255679Y-186004984*G75*G03X100255679Y-186392283I50002J-193649D01*G74*G01*X100255679Y-186504984*G75*G03X100255679Y-186892283I50002J-193649D01*G74*G01*X100255679Y-187004984*G75*G03X100255679Y-187392283I50002J-193649D01*G74*G01*X100255679Y-187504984*G75*G03X100255679Y-187892283I50002J-193649D01*G74*G01*X100255679Y-188004984*G75*G03X100255679Y-188392283I50002J-193649D01*G74*G01*X100255679Y-188504984*G75*G03X100255679Y-188892283I50002J-193649D01*G74*G01*X100255679Y-189004984*G75*G03X100255679Y-189392283I50002J-193649D01*G74*G01*X100255679Y-189504984*G75*G03X100255679Y-189892283I50002J-193649D01*G74*G01*X100255679Y-190004984*G75*G03X100255679Y-190392283I50002J-193649D01*G74*G01*X100255679Y-190504984*G75*G03X100255679Y-190892283I50002J-193649D01*G74*G01*X100255679Y-191004984*G75*G03X100255679Y-191392283I50002J-193649D01*G74*G01*X100255679Y-191504984*G75*G03X100255679Y-191892283I50002J-193649D01*G74*G01*X100255679Y-192004984*G75*G03X100255679Y-192392283I50002J-193649D01*G74*G01*X100255679Y-192504984*G75*G03X100255679Y-192892283I50002J-193649D01*G74*G01*X100255679Y-193004984*G75*G03X100255679Y-193392283I50002J-193649D01*G74*G01*X100255679Y-193504984*G75*G03X100255679Y-193892283I50002J-193649D01*G74*G01*X100255679Y-194004984*G75*G03X100255679Y-194392283I50002J-193649D01*G74*G01*X100255679Y-194504984*G75*G03X100255679Y-194892283I50002J-193649D01*G74*G01*X100255679Y-195004984*G75*G03X100255679Y-195392283I50002J-193649D01*G74*G01*X100255679Y-195504984*G75*G03X100255679Y-195892283I50002J-193649D01*G74*G01*X100255679Y-196004984*G75*G03X100255679Y-196392283I50002J-193649D01*G74*G01*X100255679Y-196504984*G75*G03X100255679Y-196892283I50002J-193649D01*G74*G01*X100255679Y-197004984*G75*G03X100255679Y-197392283I50002J-193649D01*G74*G01*X100255679Y-197504984*G75*G03X100255679Y-197892283I50002J-193649D01*G74*G01*X100255679Y-198004984*G75*G03X100255679Y-198392283I50002J-193649D01*G74*G01*X100255679Y-198504984*G75*G03X100255679Y-198892283I50002J-193649D01*G74*G01*X100255679Y-199004984*G75*G03X100255679Y-199392283I50002J-193649D01*G74*G01*X100255679Y-199504984*G75*G03X100255679Y-199892283I50002J-193649D01*G74*G01*X100255679Y-200004984*G75*G03X100255679Y-200392283I50002J-193649D01*G74*G01*X100255679Y-200504984*G75*G03X100255679Y-200892283I50002J-193649D01*G74*G01*X100255679Y-201004984*G75*G03X100255679Y-201392283I50002J-193649D01*G74*G01*X100255679Y-201504984*G75*G03X100255679Y-201892283I50002J-193649D01*G74*G01*X100255679Y-202004984*G75*G03X100255679Y-202392283I50002J-193649D01*G74*G01*X100255679Y-202504984*G75*G03X100255679Y-202892283I50002J-193649D01*G74*G01*X100255679Y-203004984*G75*G03X100255679Y-203392283I50002J-193649D01*G74*G01*X100255679Y-203504984*G75*G03X100255679Y-203892283I50002J-193649D01*G74*G01*X100255679Y-204004984*G75*G03X100255679Y-204392283I50002J-193649D01*G74*G01*X100255679Y-204504984*G75*G03X100255679Y-204892283I50002J-193649D01*G74*G01*X100255679Y-205004984*G75*G03X100255679Y-205392283I50002J-193649D01*G74*G01*X100255679Y-205504984*G75*G03X100255679Y-205892283I50002J-193649D01*G74*G01*X100255679Y-206004984*G75*G03X100255679Y-206392283I50002J-193649D01*G74*G01*X100255679Y-206504984*G75*G03X100255679Y-206892283I50002J-193649D01*G74*G01*X100255679Y-207004984*G75*G03X100255679Y-207392283I50002J-193649D01*G74*G01*X100255679Y-207504984*G75*G03X100255679Y-207892283I50002J-193649D01*G74*G01*X100255679Y-208004984*G75*G03X100255679Y-208392283I50002J-193649D01*G74*G01*X100255679Y-208504984*G75*G03X100255679Y-208892283I50002J-193649D01*G74*G01*X100255679Y-209004984*G75*G03X100255679Y-209392283I50002J-193649D01*G74*G01*X100255679Y-209504984*G75*G03X100255679Y-209892283I50002J-193649D01*G74*G01*X100255679Y-210004984*G75*G03X100255679Y-210392283I50002J-193649D01*G74*G01*X100255679Y-210504984*G75*G03X100255679Y-210892283I50002J-193649D01*G74*G01*X100255679Y-211004984*G75*G03X100255679Y-211392283I50002J-193649D01*G74*G01*X100255679Y-211504984*G75*G03X100255679Y-211892283I50002J-193649D01*G74*G01*X100255679Y-212004984*G75*G03X100255679Y-212392283I50002J-193649D01*G74*G01*X100255679Y-212504984*G75*G03X100255679Y-212892283I50002J-193649D01*G74*G01*X100255679Y-213004984*G75*G03X100255679Y-213392283I50002J-193649D01*G74*G01*X100255679Y-213504984*G75*G03X100255679Y-213892283I50002J-193649D01*G74*G01*X100255679Y-214004984*G75*G03X100255679Y-214392283I50002J-193649D01*G74*G01*X100255679Y-214504984*G75*G03X100255679Y-214892283I50002J-193649D01*G74*G01*X100255679Y-215004984*G75*G03X100255679Y-215392283I50002J-193649D01*G74*G01*X100255679Y-215504984*G75*G03X100255679Y-215892283I50002J-193649D01*G74*G01*X100255679Y-216004984*G75*G03X100255679Y-216392283I50002J-193649D01*G74*G01*X100255679Y-216504984*G75*G03X100255679Y-216892283I50002J-193649D01*G74*G01*X100255679Y-217004984*G75*G03X100255679Y-217392283I50002J-193649D01*G74*G01*X100255679Y-217504984*G75*G03X100255679Y-217892283I50002J-193649D01*G74*G01*X100255679Y-218004984*G75*G03X100255679Y-218392283I50002J-193649D01*G74*G01*X100255679Y-218504984*G75*G03X100255679Y-218892283I50002J-193649D01*G74*G01*X100255679Y-219004984*G75*G03X100255679Y-219392283I50002J-193649D01*G74*G01*X100255679Y-219504984*G75*G03X100255679Y-219892283I50002J-193649D01*G74*G01*X100255679Y-220004984*G75*G03X100255679Y-220392283I50002J-193649D01*G74*G01*X100255679Y-220504984*G75*G03X100255679Y-220892283I50002J-193649D01*G74*G01*X100255679Y-221004984*X100055679Y-221504984*X99930679Y-221504984*X99930679Y-224004984*X174430679Y-226004984*X173681757Y-239152896*X173499221Y-239494021*X173356940Y-239815337*X173305614Y-239979763*X173168849Y-240417906*X173109659Y-240642424*X172955667Y-241442424*X172894879Y-241802424*X172808278Y-242802414*X172813227Y-244122414*X172907597Y-245122428*X172952821Y-245523193*X173374149Y-247128631*X173684149Y-247716060*X173684386Y-248645574*X173684386Y-254560574*G75*G03X182417700Y-261455674I1250109J-7395081D01*G74*G01*G75*G03X176184386Y-254560574I-7483311J-500055D01*G74*G01*X176184151Y-247716060*X176494181Y-247128574*X176915509Y-245523136*X176960733Y-245122371*X177055102Y-244122357*X177060052Y-242802357*X176973451Y-241802367*X176912663Y-241442367*X176758671Y-240642367*X176699481Y-240417849*X176562716Y-239979706*X176511390Y-239815280*X176369109Y-239493964*X176181757Y-239146725*X176187789Y-239157906D01*M02*